<svg version="1.1" xmlns="http://www.w3.org/2000/svg" viewBox="0 0 523.2391357421875 149.22434082031248" width="523.2391357421875" height="149.22434082031248">
  <!-- svg-source:excalidraw -->
  
  <defs>
    <style class="style-fonts">
      @font-face {
        font-family: "Virgil";
        src: url("https://excalidraw.com/Virgil.woff2");
      }
      @font-face {
        font-family: "Cascadia";
        src: url("https://excalidraw.com/Cascadia.woff2");
      }
    </style>
  </defs>
  <g transform="translate(10 10) rotate(0 240.234375 12)"><text x="0" y="0" font-family="Cascadia, Segoe UI Emoji" font-size="20px" fill="#000000" text-anchor="start" style="white-space: pre;" direction="ltr" dominant-baseline="text-before-edge">/apis/batch/v1/namespace/{namespace}/jobs</text></g><g stroke-linecap="round"><g transform="translate(93.48032804884065 44.76334228515623) rotate(0 0 25.06988525390622)"><path d="M0 0 C0 8.36, 0 41.78, 0 50.14 M0 0 C0 8.36, 0 41.78, 0 50.14" stroke="#1971c2" stroke-width="2" fill="none"></path></g><g transform="translate(93.48032804884065 44.76334228515623) rotate(0 0 25.06988525390622)"><path d="M0 0 L6.34 13.59 L-6.34 13.59 L0 0" stroke="none" stroke-width="0" fill="#1971c2" fill-rule="evenodd"></path><path d="M0 0 C1.92 4.12, 3.84 8.24, 6.34 13.59 M0 0 C2.02 4.33, 4.04 8.67, 6.34 13.59 M6.34 13.59 C3.31 13.59, 0.29 13.59, -6.34 13.59 M6.34 13.59 C2.11 13.59, -2.12 13.59, -6.34 13.59 M-6.34 13.59 C-4.63 9.93, -2.92 6.26, 0 0 M-6.34 13.59 C-4.84 10.37, -3.33 7.15, 0 0 M0 0 C0 0, 0 0, 0 0 M0 0 C0 0, 0 0, 0 0" stroke="#1971c2" stroke-width="2" fill="none"></path></g></g><mask></mask><g transform="translate(63.581787109375 115.22434082031248) rotate(0 29.296875 12)"><text x="0" y="0" font-family="Cascadia, Segoe UI Emoji" font-size="20px" fill="#1971c2" text-anchor="start" style="white-space: pre;" direction="ltr" dominant-baseline="text-before-edge">group</text></g><g stroke-linecap="round"><g transform="translate(158.93542480468727 44.76334228515623) rotate(0 0 25.06988525390622)"><path d="M0 0 C0 8.36, 0 41.78, 0 50.14 M0 0 C0 8.36, 0 41.78, 0 50.14" stroke="#1971c2" stroke-width="2" fill="none"></path></g><g transform="translate(158.93542480468727 44.76334228515623) rotate(0 0 25.06988525390622)"><path d="M0 0 L6.34 13.59 L-6.34 13.59 L0 0" stroke="none" stroke-width="0" fill="#1971c2" fill-rule="evenodd"></path><path d="M0 0 C2.27 4.87, 4.54 9.74, 6.34 13.59 M0 0 C2.32 4.98, 4.65 9.96, 6.34 13.59 M6.34 13.59 C2.07 13.59, -2.19 13.59, -6.34 13.59 M6.34 13.59 C3.78 13.59, 1.22 13.59, -6.34 13.59 M-6.34 13.59 C-3.86 8.28, -1.39 2.97, 0 0 M-6.34 13.59 C-4.61 9.89, -2.89 6.19, 0 0 M0 0 C0 0, 0 0, 0 0 M0 0 C0 0, 0 0, 0 0" stroke="#1971c2" stroke-width="2" fill="none"></path></g></g><mask></mask><g transform="translate(129.89697265625 115.22434082031248) rotate(0 41.015625 12)"><text x="0" y="0" font-family="Cascadia, Segoe UI Emoji" font-size="20px" fill="#1971c2" text-anchor="start" style="white-space: pre;" direction="ltr" dominant-baseline="text-before-edge">version</text></g><g stroke-linecap="round"><g transform="translate(469.5667724609377 44.76334228515623) rotate(0 0 25.06988525390622)"><path d="M0 0 C0 8.36, 0 41.78, 0 50.14 M0 0 C0 8.36, 0 41.78, 0 50.14" stroke="#1971c2" stroke-width="2" fill="none"></path></g><g transform="translate(469.5667724609377 44.76334228515623) rotate(0 0 25.06988525390622)"><path d="M0 0 L6.34 13.59 L-6.34 13.59 L0 0" stroke="none" stroke-width="0" fill="#1971c2" fill-rule="evenodd"></path><path d="M0 0 C1.83 3.93, 3.66 7.86, 6.34 13.59 M0 0 C2.32 4.98, 4.65 9.96, 6.34 13.59 M6.34 13.59 C1.45 13.59, -3.45 13.59, -6.34 13.59 M6.34 13.59 C1.29 13.59, -3.77 13.59, -6.34 13.59 M-6.34 13.59 C-4.57 9.8, -2.8 6, 0 0 M-6.34 13.59 C-4.54 9.73, -2.73 5.86, 0 0 M0 0 C0 0, 0 0, 0 0 M0 0 C0 0, 0 0, 0 0" stroke="#1971c2" stroke-width="2" fill="none"></path></g></g><mask></mask><g transform="translate(419.4891357421875 115.22434082031248) rotate(0 46.875 12)"><text x="0" y="0" font-family="Cascadia, Segoe UI Emoji" font-size="20px" fill="#1971c2" text-anchor="start" style="white-space: pre;" direction="ltr" dominant-baseline="text-before-edge">resource</text></g></svg>