<?xml version="1.0" encoding="UTF-8"?>
<svg xmlns="http://www.w3.org/2000/svg" xmlns:xlink="http://www.w3.org/1999/xlink" width="16px" height="16px" viewBox="0 0 16 15" version="1.1">
<g id="surface1">
<path style=" stroke:none;fill-rule:nonzero;fill:rgb(19.607843%,42.352941%,89.803922%);fill-opacity:1;" d="M 7.945312 0 C 7.804688 0.0078125 7.664062 0.0429688 7.535156 0.101562 L 1.972656 2.667969 C 1.683594 2.804688 1.472656 3.058594 1.398438 3.359375 L 0.0273438 9.128906 C -0.0390625 9.394531 0.015625 9.679688 0.171875 9.910156 C 0.191406 9.9375 0.210938 9.964844 0.230469 9.988281 L 4.082031 14.613281 C 4.285156 14.855469 4.589844 15 4.914062 15 L 11.085938 14.996094 C 11.410156 14.996094 11.71875 14.855469 11.917969 14.613281 L 15.769531 9.988281 C 15.96875 9.746094 16.046875 9.429688 15.972656 9.125 L 14.597656 3.359375 C 14.527344 3.054688 14.316406 2.800781 14.023438 2.667969 L 8.460938 0.101562 C 8.300781 0.0273438 8.121094 -0.0078125 7.945312 0 Z M 7.945312 0 "/>
<path style=" stroke:none;fill-rule:nonzero;fill:rgb(100%,100%,100%);fill-opacity:1;" d="M 8 1.964844 C 7.816406 1.964844 7.667969 2.125 7.667969 2.320312 C 7.667969 2.324219 7.667969 2.328125 7.667969 2.332031 C 7.667969 2.355469 7.664062 2.390625 7.667969 2.414062 C 7.671875 2.527344 7.695312 2.613281 7.710938 2.71875 C 7.742188 2.941406 7.765625 3.128906 7.75 3.300781 C 7.734375 3.367188 7.683594 3.425781 7.640625 3.46875 L 7.632812 3.605469 C 7.433594 3.621094 7.230469 3.648438 7.03125 3.695312 C 6.167969 3.882812 5.421875 4.3125 4.855469 4.894531 C 4.820312 4.871094 4.753906 4.824219 4.734375 4.8125 C 4.675781 4.820312 4.617188 4.835938 4.539062 4.792969 C 4.390625 4.695312 4.253906 4.5625 4.089844 4.402344 C 4.015625 4.324219 3.960938 4.25 3.871094 4.175781 C 3.851562 4.160156 3.820312 4.136719 3.796875 4.121094 C 3.726562 4.066406 3.644531 4.039062 3.5625 4.035156 C 3.460938 4.03125 3.363281 4.070312 3.296875 4.148438 C 3.183594 4.289062 3.222656 4.5 3.378906 4.625 C 3.382812 4.625 3.382812 4.625 3.386719 4.625 C 3.40625 4.644531 3.433594 4.664062 3.453125 4.679688 C 3.550781 4.746094 3.636719 4.78125 3.730469 4.835938 C 3.929688 4.953125 4.09375 5.054688 4.226562 5.171875 C 4.277344 5.226562 4.285156 5.316406 4.292969 5.359375 L 4.398438 5.449219 C 3.828125 6.28125 3.5625 7.304688 3.71875 8.351562 L 3.582031 8.390625 C 3.542969 8.4375 3.492188 8.507812 3.4375 8.53125 C 3.265625 8.582031 3.074219 8.601562 2.839844 8.625 C 2.730469 8.632812 2.636719 8.628906 2.519531 8.648438 C 2.496094 8.65625 2.460938 8.664062 2.433594 8.667969 C 2.429688 8.671875 2.429688 8.671875 2.429688 8.671875 C 2.429688 8.671875 2.425781 8.671875 2.425781 8.671875 C 2.226562 8.71875 2.101562 8.890625 2.144531 9.0625 C 2.183594 9.234375 2.375 9.339844 2.574219 9.296875 C 2.574219 9.296875 2.574219 9.296875 2.578125 9.296875 C 2.578125 9.296875 2.582031 9.296875 2.582031 9.296875 C 2.613281 9.289062 2.644531 9.285156 2.667969 9.277344 C 2.785156 9.246094 2.867188 9.203125 2.96875 9.167969 C 3.1875 9.089844 3.371094 9.027344 3.550781 9 C 3.625 8.996094 3.703125 9.046875 3.742188 9.066406 L 3.886719 9.042969 C 4.21875 10.042969 4.917969 10.851562 5.804688 11.359375 L 5.746094 11.5 C 5.765625 11.554688 5.792969 11.628906 5.773438 11.679688 C 5.710938 11.84375 5.597656 12.015625 5.472656 12.203125 C 5.414062 12.292969 5.351562 12.359375 5.296875 12.460938 C 5.28125 12.484375 5.265625 12.523438 5.253906 12.546875 C 5.167969 12.726562 5.230469 12.929688 5.394531 13.003906 C 5.558594 13.082031 5.765625 13 5.851562 12.824219 C 5.851562 12.824219 5.855469 12.824219 5.855469 12.824219 C 5.867188 12.796875 5.882812 12.765625 5.894531 12.742188 C 5.941406 12.636719 5.957031 12.546875 5.992188 12.445312 C 6.078125 12.230469 6.128906 12.007812 6.25 11.867188 C 6.28125 11.828125 6.335938 11.816406 6.394531 11.800781 L 6.46875 11.667969 C 7.242188 11.953125 8.105469 12.03125 8.96875 11.84375 C 9.167969 11.800781 9.355469 11.742188 9.539062 11.675781 C 9.5625 11.710938 9.601562 11.78125 9.613281 11.800781 C 9.667969 11.816406 9.730469 11.828125 9.78125 11.898438 C 9.871094 12.050781 9.933594 12.226562 10.011719 12.441406 C 10.042969 12.542969 10.058594 12.628906 10.105469 12.734375 C 10.117188 12.757812 10.136719 12.792969 10.148438 12.816406 C 10.238281 12.996094 10.441406 13.078125 10.609375 13 C 10.773438 12.921875 10.835938 12.71875 10.75 12.542969 C 10.738281 12.515625 10.71875 12.480469 10.707031 12.457031 C 10.652344 12.355469 10.589844 12.289062 10.527344 12.199219 C 10.402344 12.007812 10.296875 11.851562 10.234375 11.6875 C 10.207031 11.605469 10.238281 11.554688 10.257812 11.5 C 10.246094 11.484375 10.21875 11.40625 10.203125 11.371094 C 11.125 10.84375 11.804688 10.003906 12.121094 9.035156 C 12.164062 9.042969 12.238281 9.054688 12.265625 9.0625 C 12.316406 9.027344 12.359375 8.988281 12.449219 8.996094 C 12.628906 9.019531 12.8125 9.082031 13.03125 9.160156 C 13.132812 9.195312 13.214844 9.242188 13.332031 9.269531 C 13.355469 9.277344 13.390625 9.28125 13.417969 9.289062 C 13.417969 9.289062 13.421875 9.289062 13.421875 9.289062 C 13.425781 9.289062 13.425781 9.289062 13.425781 9.292969 C 13.625 9.332031 13.816406 9.226562 13.855469 9.054688 C 13.898438 8.882812 13.773438 8.710938 13.574219 8.664062 C 13.546875 8.65625 13.507812 8.648438 13.480469 8.640625 C 13.363281 8.621094 13.269531 8.625 13.160156 8.617188 C 12.925781 8.59375 12.734375 8.574219 12.5625 8.523438 C 12.492188 8.496094 12.441406 8.417969 12.417969 8.382812 L 12.285156 8.34375 C 12.355469 7.859375 12.335938 7.351562 12.214844 6.84375 C 12.09375 6.332031 11.878906 5.863281 11.589844 5.449219 C 11.625 5.421875 11.691406 5.363281 11.707031 5.347656 C 11.714844 5.289062 11.710938 5.230469 11.769531 5.167969 C 11.902344 5.046875 12.066406 4.949219 12.265625 4.828125 C 12.359375 4.777344 12.449219 4.742188 12.542969 4.675781 C 12.566406 4.660156 12.59375 4.632812 12.617188 4.617188 C 12.777344 4.492188 12.8125 4.28125 12.699219 4.144531 C 12.582031 4.003906 12.363281 3.992188 12.203125 4.113281 C 12.179688 4.132812 12.148438 4.152344 12.128906 4.171875 C 12.039062 4.246094 11.984375 4.320312 11.90625 4.394531 C 11.742188 4.558594 11.609375 4.691406 11.460938 4.789062 C 11.394531 4.824219 11.300781 4.8125 11.257812 4.808594 L 11.128906 4.898438 C 10.410156 4.164062 9.425781 3.699219 8.367188 3.605469 C 8.363281 3.5625 8.359375 3.488281 8.359375 3.464844 C 8.316406 3.421875 8.261719 3.390625 8.25 3.300781 C 8.234375 3.128906 8.257812 2.941406 8.289062 2.71875 C 8.304688 2.613281 8.328125 2.527344 8.332031 2.414062 C 8.335938 2.386719 8.332031 2.347656 8.332031 2.320312 C 8.332031 2.125 8.183594 1.964844 8 1.964844 Z M 7.582031 4.457031 L 7.484375 6.144531 L 7.476562 6.148438 C 7.46875 6.300781 7.339844 6.421875 7.183594 6.421875 C 7.117188 6.421875 7.058594 6.402344 7.011719 6.367188 L 7.007812 6.367188 L 5.574219 5.386719 C 6.015625 4.96875 6.578125 4.660156 7.226562 4.519531 C 7.347656 4.492188 7.464844 4.472656 7.582031 4.457031 Z M 8.417969 4.457031 C 9.175781 4.550781 9.875 4.878906 10.410156 5.386719 L 8.988281 6.363281 L 8.984375 6.359375 C 8.859375 6.449219 8.679688 6.425781 8.582031 6.308594 C 8.542969 6.257812 8.519531 6.203125 8.515625 6.144531 Z M 5.054688 6.019531 L 6.363281 7.148438 L 6.363281 7.15625 C 6.480469 7.253906 6.5 7.425781 6.398438 7.542969 C 6.359375 7.59375 6.304688 7.625 6.246094 7.640625 L 6.246094 7.648438 L 4.570312 8.113281 C 4.484375 7.359375 4.667969 6.628906 5.054688 6.019531 Z M 10.933594 6.019531 C 11.128906 6.324219 11.273438 6.664062 11.363281 7.03125 C 11.449219 7.394531 11.46875 7.757812 11.433594 8.109375 L 9.75 7.640625 L 9.75 7.632812 C 9.597656 7.59375 9.503906 7.445312 9.539062 7.296875 C 9.554688 7.234375 9.589844 7.183594 9.632812 7.144531 Z M 7.730469 7.234375 L 8.265625 7.234375 L 8.601562 7.636719 L 8.480469 8.136719 L 8 8.363281 L 7.515625 8.136719 L 7.398438 7.636719 Z M 9.449219 8.609375 C 9.472656 8.609375 9.496094 8.613281 9.515625 8.617188 L 9.519531 8.613281 L 11.253906 8.894531 C 11 9.582031 10.511719 10.179688 9.863281 10.578125 L 9.191406 9.007812 L 9.195312 9.007812 C 9.132812 8.867188 9.195312 8.707031 9.335938 8.640625 C 9.371094 8.621094 9.410156 8.613281 9.449219 8.609375 Z M 6.535156 8.617188 C 6.667969 8.621094 6.789062 8.707031 6.820312 8.839844 C 6.832031 8.898438 6.824219 8.960938 6.800781 9.011719 L 6.808594 9.019531 L 6.140625 10.574219 C 5.519531 10.1875 5.023438 9.609375 4.757812 8.902344 L 6.476562 8.617188 L 6.480469 8.621094 C 6.5 8.617188 6.519531 8.617188 6.535156 8.617188 Z M 7.988281 9.296875 C 8.035156 9.296875 8.082031 9.304688 8.125 9.328125 C 8.183594 9.355469 8.230469 9.398438 8.257812 9.449219 L 8.265625 9.449219 L 9.113281 10.925781 C 9 10.960938 8.886719 10.992188 8.773438 11.019531 C 8.125 11.160156 7.480469 11.117188 6.894531 10.925781 L 7.738281 9.449219 L 7.742188 9.449219 C 7.792969 9.355469 7.886719 9.300781 7.988281 9.296875 Z M 7.988281 9.296875 "/>
</g>
</svg>
