<?xml version="1.0" encoding="UTF-8"?>
<svg xmlns="http://www.w3.org/2000/svg" xmlns:xlink="http://www.w3.org/1999/xlink" width="200px" height="194px" viewBox="0 0 199 194" version="1.1">
<g id="surface1">
<path style=" stroke:none;fill-rule:evenodd;fill:rgb(3.137255%,15.686275%,69.411765%);fill-opacity:1;" d="M 51.339844 189.796875 C 52.324219 191.027344 54 192.058594 56.726562 193.070312 C 57.0625 193.179688 58.785156 193.472656 61.53125 193.515625 C 77.042969 193.765625 125.03125 193.855469 135.648438 193.765625 C 141.503906 193.695312 145.882812 191.992188 148.632812 188.539062 C 162.023438 171.609375 175.589844 154.835938 189.066406 137.972656 C 196.664062 128.488281 200.621094 126.738281 197.761719 113.667969 C 193.515625 94.335938 188.730469 75.097656 184.484375 55.769531 C 180.953125 39.578125 182.273438 38.367188 171.433594 32.941406 C 151.359375 23.007812 129.859375 12.667969 109.789062 3.183594 C 105.386719 1.097656 100.9375 -0.335938 97.585938 0.0664062 C 96.175781 0.246094 92.957031 1.414062 88.890625 3.296875 C 70.675781 11.726562 52.371094 20.808594 34.109375 29.308594 C 16.742188 37.378906 18.21875 38.996094 13.636719 58.886719 C 9.210938 78.148438 4.628906 97.519531 0.359375 116.78125 C -1.070312 123.265625 1.992188 128.554688 5.855469 133.375 C 20.964844 152.234375 36.210938 171.003906 51.339844 189.796875 Z M 51.339844 189.796875 "/>
<path style=" stroke:none;fill-rule:evenodd;fill:rgb(3.137255%,15.686275%,69.411765%);fill-opacity:1;" d="M 79.996094 193.695312 L 81.648438 193.695312 L 46.222656 140.6875 L 45.082031 141.449219 Z M 85.246094 193.71875 L 87.570312 193.742188 L 87.011719 191.632812 L 89.738281 175.78125 L 94.789062 189.59375 L 94.074219 193.765625 L 95.460938 193.765625 L 95.753906 192.171875 L 96.332031 193.765625 L 97.785156 193.765625 L 96.222656 189.457031 L 98.277344 177.550781 L 98.835938 193.765625 L 100.289062 193.765625 L 100.714844 183.066406 L 102.859375 191.320312 L 102.726562 192.039062 L 101.988281 193.785156 L 104.914062 193.785156 L 104.378906 191.679688 L 108.222656 182.621094 L 106.636719 189.839844 L 106.4375 190.199219 L 106.546875 190.265625 L 105.765625 193.785156 L 107.171875 193.785156 L 107.933594 190.332031 L 146.285156 118.957031 L 145.082031 118.308594 L 109.007812 185.398438 L 111.128906 175.757812 L 134.664062 120.4375 L 133.390625 119.898438 L 112.738281 168.46875 L 122.125 125.84375 L 120.785156 125.550781 L 109.832031 175.332031 L 105.316406 185.9375 L 125.277344 84.269531 L 123.9375 84 L 103.464844 188.226562 L 100.894531 178.335938 L 101.699219 157.820312 L 110.28125 108.351562 L 108.9375 108.128906 L 102.121094 147.414062 L 103.730469 106.535156 L 102.367188 106.46875 L 100.332031 157.660156 L 99.195312 164.210938 L 97.988281 128.21875 L 99.082031 121.894531 L 97.71875 121.671875 L 97.652344 122.054688 L 96.398438 122.097656 L 96.601562 128.128906 L 93.09375 148.445312 L 76.394531 84.425781 L 75.054688 84.761719 L 92.535156 151.71875 L 89.269531 170.488281 L 76.597656 135.84375 L 75.324219 136.3125 L 88.800781 173.203125 L 86.164062 188.496094 L 71.769531 134.835938 L 70.449219 135.171875 L 85.605469 191.699219 Z M 111.398438 193.785156 L 113.140625 193.785156 L 152.1875 142.324219 L 151.113281 141.496094 Z M 90.230469 173.066406 L 95.261719 186.878906 L 97.832031 172.058594 L 93.359375 154.925781 Z M 93.917969 151.652344 L 97.921875 166.96875 L 96.847656 134.855469 Z M 99.417969 170.9375 L 99.507812 173 L 99.707031 173.785156 L 99.929688 168.066406 Z M 99.417969 170.9375 "/>
<path style=" stroke:none;fill-rule:evenodd;fill:rgb(63.137255%,63.137255%,63.137255%);fill-opacity:1;" d="M 79.996094 193.695312 L 81.648438 193.695312 L 46.222656 140.6875 L 45.082031 141.449219 Z M 85.246094 193.71875 L 87.570312 193.742188 L 87.011719 191.632812 L 89.738281 175.78125 L 94.789062 189.59375 L 94.074219 193.765625 L 95.460938 193.765625 L 95.753906 192.171875 L 96.332031 193.765625 L 97.785156 193.765625 L 96.222656 189.457031 L 98.277344 177.550781 L 98.835938 193.765625 L 100.289062 193.765625 L 100.714844 183.066406 L 102.859375 191.320312 L 102.726562 192.039062 L 101.988281 193.785156 L 104.914062 193.785156 L 104.378906 191.679688 L 108.222656 182.621094 L 106.636719 189.839844 L 106.4375 190.199219 L 106.546875 190.265625 L 105.765625 193.785156 L 107.171875 193.785156 L 107.933594 190.332031 L 146.285156 118.957031 L 145.082031 118.308594 L 109.007812 185.398438 L 111.128906 175.757812 L 134.664062 120.4375 L 133.390625 119.898438 L 112.738281 168.46875 L 122.125 125.84375 L 120.785156 125.550781 L 109.832031 175.332031 L 105.316406 185.9375 L 125.277344 84.269531 L 123.9375 84 L 103.464844 188.226562 L 100.894531 178.335938 L 101.699219 157.820312 L 110.28125 108.351562 L 108.9375 108.128906 L 102.121094 147.414062 L 103.730469 106.535156 L 102.367188 106.46875 L 100.332031 157.660156 L 99.195312 164.210938 L 97.988281 128.21875 L 99.082031 121.894531 L 97.71875 121.671875 L 97.652344 122.054688 L 96.398438 122.097656 L 96.601562 128.128906 L 93.09375 148.445312 L 76.394531 84.425781 L 75.054688 84.761719 L 92.535156 151.71875 L 89.269531 170.488281 L 76.597656 135.84375 L 75.324219 136.3125 L 88.800781 173.203125 L 86.164062 188.496094 L 71.769531 134.835938 L 70.449219 135.171875 L 85.605469 191.699219 Z M 111.398438 193.785156 L 113.140625 193.785156 L 152.1875 142.324219 L 151.113281 141.496094 Z M 90.230469 173.066406 L 95.261719 186.878906 L 97.832031 172.058594 L 93.359375 154.925781 Z M 93.917969 151.652344 L 97.921875 166.96875 L 96.847656 134.855469 Z M 99.417969 170.9375 L 99.507812 173 L 99.707031 173.785156 L 99.929688 168.066406 Z M 99.417969 170.9375 "/>
<path style=" stroke:none;fill-rule:evenodd;fill:rgb(78.431373%,84.705882%,31.764706%);fill-opacity:1;" d="M 169.777344 119.78125 C 176.328125 110.734375 174.910156 98.5 166.609375 92.453125 C 158.3125 86.40625 146.277344 88.832031 139.726562 97.878906 C 133.179688 106.921875 134.597656 119.15625 142.894531 125.203125 C 151.195312 131.253906 163.230469 128.824219 169.777344 119.78125 Z M 169.777344 119.78125 "/>
<path style=" stroke:none;fill-rule:evenodd;fill:rgb(99.607843%,99.607843%,99.607843%);fill-opacity:1;" d="M 156.007812 96.511719 C 156.5 96.355469 157.707031 94.851562 157.058594 94.023438 C 154.914062 91.21875 147.894531 94.179688 145.972656 96.914062 C 144.992188 98.304688 145.503906 99.898438 146.242188 100.390625 C 146.957031 100.90625 148.433594 101.265625 149.730469 99.761719 C 151.808594 97.386719 153.28125 97.453125 156.007812 96.511719 Z M 156.007812 96.511719 "/>
<path style=" stroke:none;fill-rule:evenodd;fill:rgb(99.607843%,99.607843%,99.607843%);fill-opacity:1;" d="M 144.5 102.230469 C 142.039062 100.953125 139.066406 106.492188 139.046875 107.925781 C 139.023438 108.824219 139.582031 109.875 140.320312 110.144531 C 142.980469 111.066406 146.621094 103.351562 144.5 102.230469 Z M 144.5 102.230469 "/>
<path style=" stroke:none;fill-rule:evenodd;fill:rgb(95.294118%,43.137255%,25.490196%);fill-opacity:1;" d="M 88.292969 63.988281 C 83.414062 53.9375 71.980469 49.445312 62.761719 53.949219 C 53.539062 58.457031 50.019531 70.253906 54.898438 80.304688 C 59.777344 90.355469 71.207031 94.847656 80.429688 90.34375 C 89.648438 85.835938 93.171875 74.035156 88.292969 63.988281 Z M 88.292969 63.988281 "/>
<path style=" stroke:none;fill-rule:evenodd;fill:rgb(99.607843%,99.607843%,99.607843%);fill-opacity:1;" d="M 61.355469 65.253906 C 61.445312 64.738281 60.683594 62.964844 59.65625 63.144531 C 56.167969 63.726562 55.5 71.351562 56.972656 74.3125 C 57.753906 75.835938 59.386719 76.128906 60.167969 75.726562 C 60.953125 75.320312 61.957031 74.199219 61.265625 72.339844 C 60.148438 69.378906 60.90625 68.101562 61.355469 65.253906 Z M 61.355469 65.253906 "/>
<path style=" stroke:none;fill-rule:evenodd;fill:rgb(99.607843%,99.607843%,99.607843%);fill-opacity:1;" d="M 60.972656 78.125 C 58.695312 79.695312 62.179688 84.941406 63.410156 85.636719 C 64.191406 86.085938 65.398438 86.0625 65.957031 85.523438 C 68.035156 83.617188 62.941406 76.777344 60.972656 78.125 Z M 60.972656 78.125 "/>
<path style=" stroke:none;fill-rule:evenodd;fill:rgb(95.294118%,43.137255%,25.490196%);fill-opacity:1;" d="M 145.953125 117.066406 C 150.089844 106.6875 145.726562 95.175781 136.203125 91.351562 C 126.679688 87.53125 115.605469 92.847656 111.464844 103.226562 C 107.328125 113.605469 111.691406 125.117188 121.214844 128.9375 C 130.738281 132.761719 141.816406 127.445312 145.953125 117.066406 Z M 145.953125 117.066406 "/>
<path style=" stroke:none;fill-rule:evenodd;fill:rgb(99.607843%,99.607843%,99.607843%);fill-opacity:1;" d="M 126.929688 97.902344 C 127.355469 97.609375 128.160156 95.863281 127.332031 95.210938 C 124.5625 93.015625 118.484375 97.632812 117.277344 100.75 C 116.671875 102.34375 117.566406 103.753906 118.394531 104.070312 C 119.21875 104.382812 120.71875 104.359375 121.632812 102.589844 C 123.066406 99.785156 124.496094 99.472656 126.929688 97.902344 Z M 126.929688 97.902344 "/>
<path style=" stroke:none;fill-rule:evenodd;fill:rgb(95.294118%,43.137255%,25.490196%);fill-opacity:1;" d="M 101.210938 105.792969 C 96.332031 95.746094 84.902344 91.25 75.679688 95.757812 C 66.460938 100.261719 62.9375 112.0625 67.816406 122.113281 C 72.699219 132.164062 84.128906 136.65625 93.347656 132.148438 C 102.570312 127.644531 106.089844 115.84375 101.210938 105.792969 Z M 101.210938 105.792969 "/>
<path style=" stroke:none;fill-rule:evenodd;fill:rgb(99.607843%,99.607843%,99.607843%);fill-opacity:1;" d="M 74.273438 107.050781 C 74.363281 106.535156 73.601562 104.765625 72.574219 104.945312 C 69.085938 105.527344 68.417969 113.152344 69.890625 116.132812 C 70.675781 117.65625 72.304688 117.949219 73.089844 117.523438 C 73.871094 117.121094 74.875 116 74.183594 114.136719 C 73.066406 111.175781 73.824219 109.898438 74.273438 107.050781 Z M 74.273438 107.050781 "/>
<path style=" stroke:none;fill-rule:evenodd;fill:rgb(99.607843%,99.607843%,99.607843%);fill-opacity:1;" d="M 73.894531 119.921875 C 71.613281 121.492188 75.101562 126.738281 76.328125 127.457031 C 77.113281 127.882812 78.320312 127.882812 78.898438 127.34375 C 80.957031 125.417969 75.859375 118.578125 73.894531 119.921875 Z M 73.894531 119.921875 "/>
<path style=" stroke:none;fill-rule:evenodd;fill:rgb(49.019608%,52.941176%,84.705882%);fill-opacity:1;" d="M 164.839844 106.769531 C 170.632812 97.21875 168.222656 85.140625 159.460938 79.792969 C 150.699219 74.441406 138.898438 77.847656 133.109375 87.398438 C 127.316406 96.949219 129.726562 109.027344 138.488281 114.375 C 147.25 119.722656 159.046875 116.316406 164.839844 106.769531 Z M 164.839844 106.769531 "/>
<path style=" stroke:none;fill-rule:evenodd;fill:rgb(99.607843%,99.607843%,99.607843%);fill-opacity:1;" d="M 149.238281 84.71875 C 149.707031 84.515625 150.78125 82.902344 150.0625 82.136719 C 147.695312 79.515625 140.945312 83.058594 139.246094 85.929688 C 138.398438 87.386719 139.023438 88.933594 139.804688 89.382812 C 140.566406 89.808594 142.039062 90.054688 143.226562 88.460938 C 145.101562 85.929688 146.578125 85.859375 149.238281 84.71875 Z M 149.238281 84.71875 "/>
<path style=" stroke:none;fill-rule:evenodd;fill:rgb(99.607843%,99.607843%,99.607843%);fill-opacity:1;" d="M 138.21875 91.355469 C 135.671875 90.277344 133.167969 96.042969 133.234375 97.476562 C 133.277344 98.351562 133.949219 99.382812 134.710938 99.5625 C 137.4375 100.277344 140.429688 92.273438 138.21875 91.355469 Z M 138.21875 91.355469 "/>
<path style=" stroke:none;fill-rule:evenodd;fill:rgb(49.019608%,52.941176%,84.705882%);fill-opacity:1;" d="M 75.09375 92.746094 C 69.527344 83.0625 57.8125 79.378906 48.929688 84.519531 C 40.042969 89.660156 37.351562 101.679688 42.917969 111.363281 C 48.484375 121.046875 60.199219 124.730469 69.082031 119.589844 C 77.96875 114.449219 80.660156 102.429688 75.09375 92.746094 Z M 75.09375 92.746094 "/>
<path style=" stroke:none;fill-rule:evenodd;fill:rgb(99.607843%,99.607843%,99.607843%);fill-opacity:1;" d="M 48.324219 95.882812 C 48.367188 95.367188 47.472656 93.664062 46.46875 93.910156 C 43.027344 94.71875 42.890625 102.386719 44.570312 105.234375 C 45.441406 106.714844 47.09375 106.894531 47.855469 106.421875 C 48.613281 105.953125 49.53125 104.765625 48.703125 102.96875 C 47.386719 100.101562 48.054688 98.777344 48.324219 95.882812 Z M 48.324219 95.882812 "/>
<path style=" stroke:none;fill-rule:evenodd;fill:rgb(99.607843%,99.607843%,99.607843%);fill-opacity:1;" d="M 48.835938 108.753906 C 46.667969 110.480469 50.492188 115.484375 51.789062 116.089844 C 52.570312 116.46875 53.777344 116.378906 54.3125 115.796875 C 56.234375 113.757812 50.691406 107.277344 48.835938 108.753906 Z M 48.835938 108.753906 "/>
<path style=" stroke:none;fill-rule:evenodd;fill:rgb(52.941176%,27.058824%,26.666667%);fill-opacity:1;" d="M 112.894531 61.597656 C 112.894531 50.425781 104.570312 41.371094 94.300781 41.371094 C 84.027344 41.371094 75.703125 50.425781 75.703125 61.597656 C 75.703125 72.769531 84.027344 81.824219 94.300781 81.824219 C 104.570312 81.824219 112.894531 72.769531 112.894531 61.597656 Z M 112.894531 61.597656 "/>
<path style=" stroke:none;fill-rule:evenodd;fill:rgb(99.607843%,99.607843%,99.607843%);fill-opacity:1;" d="M 88.109375 50.902344 C 88.421875 50.476562 88.511719 48.546875 87.503906 48.257812 C 84.105469 47.246094 80.171875 53.792969 80.21875 57.113281 C 80.242188 58.839844 81.582031 59.804688 82.476562 59.78125 C 83.371094 59.757812 84.753906 59.199219 84.933594 57.226562 C 85.226562 54.0625 86.453125 53.257812 88.109375 50.902344 Z M 88.109375 50.902344 "/>
<path style=" stroke:none;fill-rule:evenodd;fill:rgb(99.607843%,99.607843%,99.607843%);fill-opacity:1;" d="M 82.164062 62.292969 C 79.414062 62.71875 80.261719 68.953125 81.066406 70.140625 C 81.558594 70.859375 82.65625 71.398438 83.414062 71.152344 C 86.097656 70.34375 84.507812 61.957031 82.164062 62.292969 Z M 82.164062 62.292969 "/>
<path style=" stroke:none;fill-rule:evenodd;fill:rgb(30.980392%,73.72549%,75.686275%);fill-opacity:1;" d="M 146.132812 68.363281 C 147.410156 57.257812 140.183594 47.300781 129.996094 46.121094 C 119.804688 44.941406 110.511719 52.988281 109.234375 64.09375 C 107.957031 75.199219 115.183594 85.15625 125.371094 86.335938 C 135.5625 87.515625 144.859375 79.46875 146.132812 68.363281 Z M 146.132812 68.363281 "/>
<path style=" stroke:none;fill-rule:evenodd;fill:rgb(99.607843%,99.607843%,99.607843%);fill-opacity:1;" d="M 122.75 54.894531 C 123.085938 54.488281 123.398438 52.605469 122.4375 52.179688 C 119.199219 50.789062 114.550781 56.867188 114.191406 60.164062 C 114.035156 61.867188 115.242188 63.011719 116.136719 63.078125 C 117.03125 63.167969 118.460938 62.742188 118.863281 60.789062 C 119.511719 57.71875 120.828125 57.046875 122.75 54.894531 Z M 122.75 54.894531 "/>
<path style=" stroke:none;fill-rule:evenodd;fill:rgb(30.980392%,73.72549%,75.686275%);fill-opacity:1;" d="M 175.28125 136.777344 C 177.730469 125.871094 171.601562 115.199219 161.59375 112.9375 C 151.589844 110.675781 141.492188 117.683594 139.042969 128.589844 C 136.597656 139.496094 142.722656 150.167969 152.730469 152.429688 C 162.738281 154.691406 172.832031 147.683594 175.28125 136.777344 Z M 175.28125 136.777344 "/>
<path style=" stroke:none;fill-rule:evenodd;fill:rgb(99.607843%,99.607843%,99.607843%);fill-opacity:1;" d="M 153.460938 120.886719 C 153.839844 120.527344 154.355469 118.667969 153.4375 118.152344 C 150.355469 116.445312 145.082031 121.964844 144.410156 125.214844 C 144.050781 126.894531 145.148438 128.152344 146.019531 128.308594 C 146.890625 128.488281 148.367188 128.242188 148.96875 126.335938 C 149.953125 123.332031 151.339844 122.816406 153.460938 120.886719 Z M 153.460938 120.886719 "/>
<path style=" stroke:none;fill-rule:evenodd;fill:rgb(99.607843%,99.607843%,99.607843%);fill-opacity:1;" d="M 145.148438 130.6875 C 142.398438 130.484375 141.839844 136.761719 142.375 138.085938 C 142.710938 138.914062 143.648438 139.679688 144.433594 139.609375 C 147.226562 139.410156 147.539062 130.867188 145.148438 130.6875 Z M 145.148438 130.6875 "/>
<path style=" stroke:none;fill-rule:evenodd;fill:rgb(78.431373%,84.705882%,31.764706%);fill-opacity:1;" d="M 51.636719 116.261719 C 45.054688 107.242188 33.011719 104.859375 24.734375 110.9375 C 16.457031 117.015625 15.085938 129.257812 21.667969 138.277344 C 28.25 147.296875 40.296875 149.679688 48.570312 143.597656 C 56.847656 137.519531 58.21875 125.28125 51.636719 116.261719 Z M 51.636719 116.261719 "/>
<path style=" stroke:none;fill-rule:evenodd;fill:rgb(99.607843%,99.607843%,99.607843%);fill-opacity:1;" d="M 25.347656 122.300781 C 25.347656 121.785156 24.273438 120.167969 23.289062 120.527344 C 19.984375 121.738281 20.652344 129.339844 22.664062 132.007812 C 23.671875 133.375 25.347656 133.375 26.039062 132.839844 C 26.753906 132.277344 27.539062 131 26.507812 129.296875 C 24.898438 126.582031 25.414062 125.191406 25.347656 122.300781 Z M 25.347656 122.300781 "/>
<path style=" stroke:none;fill-rule:evenodd;fill:rgb(99.607843%,99.607843%,99.607843%);fill-opacity:1;" d="M 27.269531 135.035156 C 25.300781 136.988281 29.660156 141.539062 31 142.011719 C 31.828125 142.300781 33.011719 142.078125 33.484375 141.449219 C 35.179688 139.183594 28.96875 133.355469 27.269531 135.035156 Z M 27.269531 135.035156 "/>
<path style=" stroke:none;fill-rule:evenodd;fill:rgb(30.980392%,73.72549%,75.686275%);fill-opacity:1;" d="M 83.289062 120.902344 C 77.601562 111.289062 65.84375 107.753906 57.019531 113.003906 C 48.199219 118.253906 45.660156 130.304688 51.34375 139.917969 C 57.03125 149.53125 68.789062 153.070312 77.609375 147.816406 C 86.433594 142.566406 88.972656 130.515625 83.289062 120.902344 Z M 83.289062 120.902344 "/>
<path style=" stroke:none;fill-rule:evenodd;fill:rgb(99.607843%,99.607843%,99.607843%);fill-opacity:1;" d="M 56.546875 124.386719 C 56.59375 123.867188 55.675781 122.164062 54.671875 122.410156 C 51.25 123.285156 51.207031 130.933594 52.929688 133.78125 C 53.820312 135.238281 55.476562 135.394531 56.214844 134.925781 C 56.972656 134.453125 57.890625 133.242188 57.019531 131.449219 C 55.675781 128.601562 56.324219 127.253906 56.546875 124.386719 Z M 56.546875 124.386719 "/>
<path style=" stroke:none;fill-rule:evenodd;fill:rgb(99.607843%,99.607843%,99.607843%);fill-opacity:1;" d="M 57.21875 137.234375 C 55.074219 139.003906 58.984375 143.9375 60.257812 144.542969 C 61.0625 144.902344 62.269531 144.789062 62.808594 144.207031 C 64.707031 142.144531 59.074219 135.730469 57.21875 137.234375 Z M 57.21875 137.234375 "/>
<path style=" stroke:none;fill-rule:evenodd;fill:rgb(78.431373%,84.705882%,31.764706%);fill-opacity:1;" d="M 120.449219 90.324219 C 120.449219 79.152344 112.125 70.097656 101.855469 70.097656 C 91.582031 70.097656 83.257812 79.152344 83.257812 90.324219 C 83.257812 101.492188 91.582031 110.550781 101.855469 110.550781 C 112.125 110.550781 120.449219 101.492188 120.449219 90.324219 Z M 120.449219 90.324219 "/>
<path style=" stroke:none;fill-rule:evenodd;fill:rgb(99.607843%,99.607843%,99.607843%);fill-opacity:1;" d="M 95.664062 79.625 C 95.953125 79.199219 96.042969 77.273438 95.035156 76.980469 C 91.660156 75.972656 87.707031 82.519531 87.75 85.859375 C 87.773438 87.566406 89.113281 88.550781 90.007812 88.527344 C 90.902344 88.507812 92.289062 87.921875 92.464844 85.949219 C 92.757812 82.8125 93.984375 81.980469 95.664062 79.625 Z M 95.664062 79.625 "/>
<path style=" stroke:none;fill-rule:evenodd;fill:rgb(99.607843%,99.607843%,99.607843%);fill-opacity:1;" d="M 89.695312 91.039062 C 86.945312 91.445312 87.796875 97.699219 88.601562 98.867188 C 89.089844 99.605469 90.1875 100.121094 90.945312 99.898438 C 93.628906 99.070312 92.042969 90.683594 89.695312 91.039062 Z M 89.695312 91.039062 "/>
</g>
</svg>
