<?xml version="1.0" encoding="UTF-8"?>
<svg xmlns="http://www.w3.org/2000/svg" xmlns:xlink="http://www.w3.org/1999/xlink" width="16px" height="16px" viewBox="0 0 16 15" version="1.1">
<g id="surface1">
<path style=" stroke:none;fill-rule:evenodd;fill:rgb(3.137255%,15.686275%,69.411765%);fill-opacity:1;" d="M 4.128906 14.675781 C 4.207031 14.769531 4.339844 14.851562 4.5625 14.929688 C 4.589844 14.9375 4.726562 14.960938 4.949219 14.960938 C 6.195312 14.980469 10.054688 14.988281 10.90625 14.980469 C 11.378906 14.976562 11.730469 14.84375 11.949219 14.578125 C 13.027344 13.269531 14.117188 11.972656 15.203125 10.667969 C 15.8125 9.933594 16.128906 9.800781 15.898438 8.789062 C 15.558594 7.292969 15.175781 5.804688 14.832031 4.3125 C 14.550781 3.058594 14.65625 2.964844 13.785156 2.546875 C 12.167969 1.777344 10.441406 0.980469 8.828125 0.246094 C 8.472656 0.0859375 8.117188 -0.0273438 7.847656 0.00390625 C 7.734375 0.0195312 7.472656 0.109375 7.148438 0.253906 C 5.683594 0.90625 4.210938 1.609375 2.742188 2.265625 C 1.347656 2.890625 1.464844 3.015625 1.097656 4.554688 C 0.742188 6.042969 0.371094 7.539062 0.0273438 9.03125 C -0.0859375 9.53125 0.160156 9.941406 0.472656 10.3125 C 1.6875 11.769531 2.910156 13.222656 4.128906 14.675781 Z M 4.128906 14.675781 "/>
<path style=" stroke:none;fill-rule:evenodd;fill:rgb(3.137255%,15.686275%,69.411765%);fill-opacity:1;" d="M 6.433594 14.976562 L 6.566406 14.976562 L 3.714844 10.878906 L 3.625 10.9375 Z M 6.855469 14.976562 L 7.039062 14.980469 L 6.996094 14.816406 L 7.214844 13.589844 L 7.621094 14.660156 L 7.5625 14.980469 L 7.675781 14.980469 L 7.699219 14.859375 L 7.746094 14.980469 L 7.863281 14.980469 L 7.738281 14.648438 L 7.902344 13.726562 L 7.945312 14.980469 L 8.0625 14.980469 L 8.097656 14.15625 L 8.269531 14.792969 L 8.257812 14.847656 L 8.199219 14.984375 L 8.433594 14.984375 L 8.390625 14.820312 L 8.703125 14.121094 L 8.574219 14.679688 L 8.558594 14.707031 L 8.566406 14.710938 L 8.503906 14.984375 L 8.617188 14.984375 L 8.679688 14.714844 L 11.761719 9.199219 L 11.664062 9.148438 L 8.765625 14.335938 L 8.933594 13.589844 L 10.828125 9.3125 L 10.726562 9.269531 L 9.0625 13.027344 L 9.820312 9.730469 L 9.710938 9.707031 L 8.832031 13.554688 L 8.46875 14.375 L 10.074219 6.515625 L 9.964844 6.496094 L 8.320312 14.554688 L 8.113281 13.789062 L 8.175781 12.203125 L 8.867188 8.378906 L 8.757812 8.359375 L 8.210938 11.398438 L 8.339844 8.238281 L 8.230469 8.230469 L 8.066406 12.191406 L 7.976562 12.695312 L 7.878906 9.914062 L 7.964844 9.425781 L 7.855469 9.40625 L 7.851562 9.4375 L 7.75 9.441406 L 7.765625 9.90625 L 7.484375 11.476562 L 6.140625 6.527344 L 6.035156 6.554688 L 7.441406 11.730469 L 7.175781 13.183594 L 6.160156 10.503906 L 6.054688 10.539062 L 7.140625 13.390625 L 6.925781 14.574219 L 5.769531 10.425781 L 5.664062 10.453125 L 6.882812 14.820312 Z M 8.957031 14.984375 L 9.097656 14.984375 L 12.234375 11.003906 L 12.148438 10.941406 Z M 7.253906 13.382812 L 7.660156 14.449219 L 7.867188 13.304688 L 7.507812 11.980469 Z M 7.550781 11.726562 L 7.871094 12.910156 L 7.785156 10.425781 Z M 7.992188 13.214844 L 8 13.375 L 8.015625 13.4375 L 8.035156 12.996094 Z M 7.992188 13.214844 "/>
<path style=" stroke:none;fill-rule:evenodd;fill:rgb(63.137255%,63.137255%,63.137255%);fill-opacity:1;" d="M 6.433594 14.976562 L 6.566406 14.976562 L 3.714844 10.878906 L 3.625 10.9375 Z M 6.855469 14.976562 L 7.039062 14.980469 L 6.996094 14.816406 L 7.214844 13.589844 L 7.621094 14.660156 L 7.5625 14.980469 L 7.675781 14.980469 L 7.699219 14.859375 L 7.746094 14.980469 L 7.863281 14.980469 L 7.738281 14.648438 L 7.902344 13.726562 L 7.945312 14.980469 L 8.0625 14.980469 L 8.097656 14.15625 L 8.269531 14.792969 L 8.257812 14.847656 L 8.199219 14.984375 L 8.433594 14.984375 L 8.390625 14.820312 L 8.703125 14.121094 L 8.574219 14.679688 L 8.558594 14.707031 L 8.566406 14.710938 L 8.503906 14.984375 L 8.617188 14.984375 L 8.679688 14.714844 L 11.761719 9.199219 L 11.664062 9.148438 L 8.765625 14.335938 L 8.933594 13.589844 L 10.828125 9.3125 L 10.726562 9.269531 L 9.0625 13.027344 L 9.820312 9.730469 L 9.710938 9.707031 L 8.832031 13.554688 L 8.46875 14.375 L 10.074219 6.515625 L 9.964844 6.496094 L 8.320312 14.554688 L 8.113281 13.789062 L 8.175781 12.203125 L 8.867188 8.378906 L 8.757812 8.359375 L 8.210938 11.398438 L 8.339844 8.238281 L 8.230469 8.230469 L 8.066406 12.191406 L 7.976562 12.695312 L 7.878906 9.914062 L 7.964844 9.425781 L 7.855469 9.40625 L 7.851562 9.4375 L 7.75 9.441406 L 7.765625 9.90625 L 7.484375 11.476562 L 6.140625 6.527344 L 6.035156 6.554688 L 7.441406 11.730469 L 7.175781 13.183594 L 6.160156 10.503906 L 6.054688 10.539062 L 7.140625 13.390625 L 6.925781 14.574219 L 5.769531 10.425781 L 5.664062 10.453125 L 6.882812 14.820312 Z M 8.957031 14.984375 L 9.097656 14.984375 L 12.234375 11.003906 L 12.148438 10.941406 Z M 7.253906 13.382812 L 7.660156 14.449219 L 7.867188 13.304688 L 7.507812 11.980469 Z M 7.550781 11.726562 L 7.871094 12.910156 L 7.785156 10.425781 Z M 7.992188 13.214844 L 8 13.375 L 8.015625 13.4375 L 8.035156 12.996094 Z M 7.992188 13.214844 "/>
<path style=" stroke:none;fill-rule:evenodd;fill:rgb(78.431373%,84.705882%,31.764706%);fill-opacity:1;" d="M 13.652344 9.261719 C 14.175781 8.5625 14.0625 7.617188 13.394531 7.148438 C 12.730469 6.679688 11.761719 6.867188 11.234375 7.566406 C 10.707031 8.265625 10.820312 9.214844 11.488281 9.679688 C 12.15625 10.148438 13.125 9.960938 13.652344 9.261719 Z M 13.652344 9.261719 "/>
<path style=" stroke:none;fill-rule:evenodd;fill:rgb(99.607843%,99.607843%,99.607843%);fill-opacity:1;" d="M 12.542969 7.460938 C 12.582031 7.449219 12.679688 7.332031 12.628906 7.269531 C 12.457031 7.054688 11.890625 7.28125 11.738281 7.492188 C 11.65625 7.601562 11.699219 7.722656 11.757812 7.761719 C 11.816406 7.800781 11.933594 7.828125 12.039062 7.714844 C 12.207031 7.53125 12.324219 7.535156 12.542969 7.460938 Z M 12.542969 7.460938 "/>
<path style=" stroke:none;fill-rule:evenodd;fill:rgb(99.607843%,99.607843%,99.607843%);fill-opacity:1;" d="M 11.617188 7.90625 C 11.421875 7.804688 11.179688 8.234375 11.179688 8.34375 C 11.175781 8.414062 11.222656 8.496094 11.28125 8.515625 C 11.496094 8.585938 11.789062 7.992188 11.617188 7.90625 Z M 11.617188 7.90625 "/>
<path style=" stroke:none;fill-rule:evenodd;fill:rgb(95.294118%,43.137255%,25.490196%);fill-opacity:1;" d="M 7.097656 4.949219 C 6.707031 4.171875 5.789062 3.824219 5.046875 4.171875 C 4.304688 4.519531 4.023438 5.433594 4.414062 6.210938 C 4.804688 6.984375 5.726562 7.332031 6.464844 6.984375 C 7.207031 6.636719 7.492188 5.722656 7.097656 4.949219 Z M 7.097656 4.949219 "/>
<path style=" stroke:none;fill-rule:evenodd;fill:rgb(99.607843%,99.607843%,99.607843%);fill-opacity:1;" d="M 4.933594 5.046875 C 4.941406 5.003906 4.878906 4.867188 4.796875 4.882812 C 4.515625 4.925781 4.460938 5.515625 4.582031 5.746094 C 4.644531 5.863281 4.773438 5.886719 4.835938 5.855469 C 4.902344 5.824219 4.980469 5.738281 4.925781 5.59375 C 4.835938 5.363281 4.898438 5.265625 4.933594 5.046875 Z M 4.933594 5.046875 "/>
<path style=" stroke:none;fill-rule:evenodd;fill:rgb(99.607843%,99.607843%,99.607843%);fill-opacity:1;" d="M 4.902344 6.039062 C 4.71875 6.160156 5 6.566406 5.097656 6.621094 C 5.160156 6.65625 5.257812 6.65625 5.304688 6.613281 C 5.46875 6.464844 5.0625 5.9375 4.902344 6.039062 Z M 4.902344 6.039062 "/>
<path style=" stroke:none;fill-rule:evenodd;fill:rgb(95.294118%,43.137255%,25.490196%);fill-opacity:1;" d="M 11.734375 9.050781 C 12.066406 8.25 11.714844 7.359375 10.949219 7.0625 C 10.183594 6.769531 9.292969 7.179688 8.960938 7.980469 C 8.628906 8.785156 8.980469 9.675781 9.746094 9.96875 C 10.511719 10.265625 11.402344 9.855469 11.734375 9.050781 Z M 11.734375 9.050781 "/>
<path style=" stroke:none;fill-rule:evenodd;fill:rgb(99.607843%,99.607843%,99.607843%);fill-opacity:1;" d="M 10.207031 7.570312 C 10.238281 7.546875 10.304688 7.410156 10.238281 7.363281 C 10.015625 7.191406 9.527344 7.550781 9.429688 7.789062 C 9.378906 7.914062 9.453125 8.023438 9.519531 8.046875 C 9.585938 8.070312 9.707031 8.070312 9.78125 7.933594 C 9.894531 7.714844 10.007812 7.691406 10.207031 7.570312 Z M 10.207031 7.570312 "/>
<path style=" stroke:none;fill-rule:evenodd;fill:rgb(95.294118%,43.137255%,25.490196%);fill-opacity:1;" d="M 8.136719 8.179688 C 7.746094 7.402344 6.828125 7.054688 6.085938 7.402344 C 5.34375 7.753906 5.058594 8.664062 5.453125 9.441406 C 5.84375 10.21875 6.765625 10.566406 7.503906 10.21875 C 8.246094 9.871094 8.53125 8.957031 8.136719 8.179688 Z M 8.136719 8.179688 "/>
<path style=" stroke:none;fill-rule:evenodd;fill:rgb(99.607843%,99.607843%,99.607843%);fill-opacity:1;" d="M 5.972656 8.277344 C 5.980469 8.238281 5.917969 8.101562 5.835938 8.113281 C 5.554688 8.160156 5.5 8.75 5.621094 8.980469 C 5.683594 9.097656 5.8125 9.121094 5.875 9.085938 C 5.9375 9.054688 6.019531 8.96875 5.964844 8.824219 C 5.875 8.597656 5.9375 8.496094 5.972656 8.277344 Z M 5.972656 8.277344 "/>
<path style=" stroke:none;fill-rule:evenodd;fill:rgb(99.607843%,99.607843%,99.607843%);fill-opacity:1;" d="M 5.941406 9.273438 C 5.757812 9.394531 6.039062 9.800781 6.136719 9.855469 C 6.199219 9.886719 6.296875 9.886719 6.34375 9.847656 C 6.507812 9.695312 6.097656 9.167969 5.941406 9.273438 Z M 5.941406 9.273438 "/>
<path style=" stroke:none;fill-rule:evenodd;fill:rgb(49.019608%,52.941176%,84.705882%);fill-opacity:1;" d="M 13.253906 8.253906 C 13.71875 7.515625 13.527344 6.582031 12.820312 6.167969 C 12.117188 5.757812 11.167969 6.019531 10.703125 6.757812 C 10.238281 7.496094 10.429688 8.429688 11.132812 8.84375 C 11.839844 9.257812 12.789062 8.992188 13.253906 8.253906 Z M 13.253906 8.253906 "/>
<path style=" stroke:none;fill-rule:evenodd;fill:rgb(99.607843%,99.607843%,99.607843%);fill-opacity:1;" d="M 12 6.550781 C 12.035156 6.535156 12.121094 6.410156 12.066406 6.351562 C 11.875 6.148438 11.332031 6.421875 11.195312 6.644531 C 11.128906 6.757812 11.175781 6.875 11.242188 6.910156 C 11.300781 6.945312 11.421875 6.964844 11.515625 6.839844 C 11.667969 6.644531 11.785156 6.640625 12 6.550781 Z M 12 6.550781 "/>
<path style=" stroke:none;fill-rule:evenodd;fill:rgb(99.607843%,99.607843%,99.607843%);fill-opacity:1;" d="M 11.113281 7.0625 C 10.90625 6.980469 10.707031 7.425781 10.710938 7.535156 C 10.714844 7.605469 10.769531 7.683594 10.832031 7.699219 C 11.050781 7.753906 11.289062 7.132812 11.113281 7.0625 Z M 11.113281 7.0625 "/>
<path style=" stroke:none;fill-rule:evenodd;fill:rgb(49.019608%,52.941176%,84.705882%);fill-opacity:1;" d="M 6.039062 7.171875 C 5.589844 6.421875 4.648438 6.136719 3.933594 6.535156 C 3.21875 6.933594 3.003906 7.863281 3.449219 8.609375 C 3.898438 9.359375 4.839844 9.644531 5.554688 9.246094 C 6.269531 8.847656 6.484375 7.917969 6.039062 7.171875 Z M 6.039062 7.171875 "/>
<path style=" stroke:none;fill-rule:evenodd;fill:rgb(99.607843%,99.607843%,99.607843%);fill-opacity:1;" d="M 3.886719 7.414062 C 3.890625 7.375 3.816406 7.242188 3.734375 7.261719 C 3.460938 7.324219 3.449219 7.917969 3.582031 8.136719 C 3.652344 8.25 3.785156 8.265625 3.847656 8.230469 C 3.910156 8.191406 3.980469 8.101562 3.914062 7.960938 C 3.808594 7.738281 3.863281 7.636719 3.886719 7.414062 Z M 3.886719 7.414062 "/>
<path style=" stroke:none;fill-rule:evenodd;fill:rgb(99.607843%,99.607843%,99.607843%);fill-opacity:1;" d="M 3.925781 8.410156 C 3.753906 8.542969 4.058594 8.929688 4.164062 8.976562 C 4.226562 9.003906 4.324219 9 4.367188 8.953125 C 4.519531 8.796875 4.074219 8.292969 3.925781 8.410156 Z M 3.925781 8.410156 "/>
<path style=" stroke:none;fill-rule:evenodd;fill:rgb(52.941176%,27.058824%,26.666667%);fill-opacity:1;" d="M 9.078125 4.761719 C 9.078125 3.898438 8.40625 3.199219 7.582031 3.199219 C 6.757812 3.199219 6.085938 3.898438 6.085938 4.761719 C 6.085938 5.625 6.757812 6.328125 7.582031 6.328125 C 8.40625 6.328125 9.078125 5.625 9.078125 4.761719 Z M 9.078125 4.761719 "/>
<path style=" stroke:none;fill-rule:evenodd;fill:rgb(99.607843%,99.607843%,99.607843%);fill-opacity:1;" d="M 7.085938 3.9375 C 7.109375 3.902344 7.117188 3.753906 7.035156 3.730469 C 6.761719 3.652344 6.445312 4.160156 6.449219 4.414062 C 6.453125 4.550781 6.558594 4.625 6.632812 4.621094 C 6.703125 4.621094 6.816406 4.578125 6.828125 4.425781 C 6.851562 4.179688 6.949219 4.117188 7.085938 3.9375 Z M 7.085938 3.9375 "/>
<path style=" stroke:none;fill-rule:evenodd;fill:rgb(99.607843%,99.607843%,99.607843%);fill-opacity:1;" d="M 6.605469 4.816406 C 6.386719 4.847656 6.453125 5.332031 6.519531 5.421875 C 6.558594 5.480469 6.644531 5.519531 6.707031 5.5 C 6.921875 5.4375 6.792969 4.789062 6.605469 4.816406 Z M 6.605469 4.816406 "/>
<path style=" stroke:none;fill-rule:evenodd;fill:rgb(30.980392%,73.72549%,75.686275%);fill-opacity:1;" d="M 11.75 5.285156 C 11.851562 4.425781 11.269531 3.65625 10.453125 3.566406 C 9.632812 3.476562 8.886719 4.097656 8.78125 4.957031 C 8.679688 5.8125 9.261719 6.585938 10.082031 6.675781 C 10.898438 6.765625 11.648438 6.144531 11.75 5.285156 Z M 11.75 5.285156 "/>
<path style=" stroke:none;fill-rule:evenodd;fill:rgb(99.607843%,99.607843%,99.607843%);fill-opacity:1;" d="M 9.871094 4.246094 C 9.894531 4.214844 9.921875 4.066406 9.84375 4.035156 C 9.582031 3.925781 9.210938 4.398438 9.179688 4.652344 C 9.167969 4.785156 9.265625 4.871094 9.335938 4.878906 C 9.410156 4.882812 9.523438 4.851562 9.558594 4.699219 C 9.609375 4.460938 9.714844 4.410156 9.871094 4.246094 Z M 9.871094 4.246094 "/>
<path style=" stroke:none;fill-rule:evenodd;fill:rgb(30.980392%,73.72549%,75.686275%);fill-opacity:1;" d="M 14.09375 10.574219 C 14.289062 9.730469 13.796875 8.90625 12.992188 8.730469 C 12.1875 8.558594 11.375 9.097656 11.179688 9.941406 C 10.984375 10.785156 11.476562 11.609375 12.28125 11.785156 C 13.085938 11.960938 13.894531 11.417969 14.09375 10.574219 Z M 14.09375 10.574219 "/>
<path style=" stroke:none;fill-rule:evenodd;fill:rgb(99.607843%,99.607843%,99.607843%);fill-opacity:1;" d="M 12.339844 9.347656 C 12.371094 9.320312 12.410156 9.175781 12.335938 9.136719 C 12.089844 9.003906 11.664062 9.429688 11.609375 9.679688 C 11.582031 9.8125 11.671875 9.910156 11.738281 9.921875 C 11.808594 9.933594 11.929688 9.914062 11.976562 9.769531 C 12.054688 9.535156 12.167969 9.496094 12.339844 9.347656 Z M 12.339844 9.347656 "/>
<path style=" stroke:none;fill-rule:evenodd;fill:rgb(99.607843%,99.607843%,99.607843%);fill-opacity:1;" d="M 11.671875 10.105469 C 11.449219 10.089844 11.402344 10.574219 11.449219 10.675781 C 11.472656 10.742188 11.550781 10.800781 11.613281 10.792969 C 11.835938 10.777344 11.863281 10.117188 11.671875 10.105469 Z M 11.671875 10.105469 "/>
<path style=" stroke:none;fill-rule:evenodd;fill:rgb(78.431373%,84.705882%,31.764706%);fill-opacity:1;" d="M 4.152344 8.988281 C 3.621094 8.292969 2.652344 8.109375 1.988281 8.578125 C 1.324219 9.046875 1.214844 9.992188 1.742188 10.691406 C 2.269531 11.390625 3.238281 11.574219 3.90625 11.101562 C 4.570312 10.632812 4.679688 9.6875 4.152344 8.988281 Z M 4.152344 8.988281 "/>
<path style=" stroke:none;fill-rule:evenodd;fill:rgb(99.607843%,99.607843%,99.607843%);fill-opacity:1;" d="M 2.039062 9.457031 C 2.039062 9.417969 1.953125 9.292969 1.871094 9.320312 C 1.605469 9.414062 1.660156 10 1.824219 10.207031 C 1.902344 10.3125 2.039062 10.3125 2.09375 10.269531 C 2.152344 10.226562 2.214844 10.128906 2.132812 9.996094 C 2.003906 9.789062 2.042969 9.679688 2.039062 9.457031 Z M 2.039062 9.457031 "/>
<path style=" stroke:none;fill-rule:evenodd;fill:rgb(99.607843%,99.607843%,99.607843%);fill-opacity:1;" d="M 2.191406 10.441406 C 2.035156 10.589844 2.386719 10.945312 2.492188 10.980469 C 2.558594 11.003906 2.65625 10.984375 2.691406 10.9375 C 2.828125 10.761719 2.328125 10.3125 2.191406 10.441406 Z M 2.191406 10.441406 "/>
<path style=" stroke:none;fill-rule:evenodd;fill:rgb(30.980392%,73.72549%,75.686275%);fill-opacity:1;" d="M 6.695312 9.347656 C 6.238281 8.605469 5.292969 8.332031 4.585938 8.738281 C 3.875 9.144531 3.671875 10.074219 4.128906 10.820312 C 4.585938 11.5625 5.53125 11.835938 6.238281 11.429688 C 6.949219 11.023438 7.152344 10.089844 6.695312 9.347656 Z M 6.695312 9.347656 "/>
<path style=" stroke:none;fill-rule:evenodd;fill:rgb(99.607843%,99.607843%,99.607843%);fill-opacity:1;" d="M 4.546875 9.617188 C 4.550781 9.578125 4.476562 9.445312 4.394531 9.464844 C 4.121094 9.53125 4.117188 10.125 4.253906 10.34375 C 4.328125 10.457031 4.460938 10.46875 4.519531 10.433594 C 4.582031 10.394531 4.65625 10.300781 4.585938 10.164062 C 4.476562 9.941406 4.527344 9.839844 4.546875 9.617188 Z M 4.546875 9.617188 "/>
<path style=" stroke:none;fill-rule:evenodd;fill:rgb(99.607843%,99.607843%,99.607843%);fill-opacity:1;" d="M 4.601562 10.609375 C 4.429688 10.746094 4.742188 11.128906 4.84375 11.175781 C 4.910156 11.203125 5.007812 11.195312 5.050781 11.148438 C 5.203125 10.992188 4.75 10.496094 4.601562 10.609375 Z M 4.601562 10.609375 "/>
<path style=" stroke:none;fill-rule:evenodd;fill:rgb(78.431373%,84.705882%,31.764706%);fill-opacity:1;" d="M 9.683594 6.984375 C 9.683594 6.121094 9.015625 5.417969 8.1875 5.417969 C 7.363281 5.417969 6.695312 6.121094 6.695312 6.984375 C 6.695312 7.847656 7.363281 8.546875 8.1875 8.546875 C 9.015625 8.546875 9.683594 7.847656 9.683594 6.984375 Z M 9.683594 6.984375 "/>
<path style=" stroke:none;fill-rule:evenodd;fill:rgb(99.607843%,99.607843%,99.607843%);fill-opacity:1;" d="M 7.691406 6.15625 C 7.714844 6.125 7.722656 5.976562 7.640625 5.953125 C 7.371094 5.875 7.050781 6.378906 7.054688 6.640625 C 7.058594 6.769531 7.164062 6.847656 7.238281 6.84375 C 7.308594 6.84375 7.421875 6.796875 7.433594 6.644531 C 7.457031 6.402344 7.558594 6.339844 7.691406 6.15625 Z M 7.691406 6.15625 "/>
<path style=" stroke:none;fill-rule:evenodd;fill:rgb(99.607843%,99.607843%,99.607843%);fill-opacity:1;" d="M 7.210938 7.039062 C 6.992188 7.070312 7.058594 7.554688 7.125 7.644531 C 7.164062 7.703125 7.25 7.742188 7.3125 7.722656 C 7.527344 7.660156 7.398438 7.011719 7.210938 7.039062 Z M 7.210938 7.039062 "/>
</g>
</svg>
