<?xml version="1.0" encoding="UTF-8"?>
<svg xmlns="http://www.w3.org/2000/svg" xmlns:xlink="http://www.w3.org/1999/xlink" width="22px" height="21px" viewBox="0 0 21 21" version="1.1">
<g id="surface1">
<path style=" stroke:none;fill-rule:evenodd;fill:rgb(3.137255%,15.686275%,69.411765%);fill-opacity:1;" d="M 5.417969 20.542969 C 5.523438 20.679688 5.699219 20.789062 5.988281 20.898438 C 6.023438 20.910156 6.203125 20.941406 6.492188 20.949219 C 8.128906 20.972656 13.195312 20.984375 14.316406 20.972656 C 14.933594 20.96875 15.394531 20.78125 15.683594 20.410156 C 17.097656 18.578125 18.53125 16.761719 19.953125 14.933594 C 20.753906 13.910156 21.171875 13.71875 20.871094 12.304688 C 20.421875 10.210938 19.917969 8.128906 19.46875 6.035156 C 19.09375 4.285156 19.234375 4.152344 18.089844 3.566406 C 15.972656 2.492188 13.703125 1.371094 11.585938 0.34375 C 11.121094 0.117188 10.652344 -0.0351562 10.296875 0.0078125 C 10.148438 0.0273438 9.808594 0.152344 9.378906 0.355469 C 7.457031 1.269531 5.527344 2.253906 3.597656 3.171875 C 1.765625 4.046875 1.921875 4.222656 1.4375 6.375 C 0.972656 8.460938 0.488281 10.554688 0.0390625 12.640625 C -0.113281 13.34375 0.210938 13.914062 0.617188 14.4375 C 2.210938 16.480469 3.820312 18.511719 5.417969 20.542969 Z M 5.417969 20.542969 "/>
<path style=" stroke:none;fill-rule:evenodd;fill:rgb(3.137255%,15.686275%,69.411765%);fill-opacity:1;" d="M 8.441406 20.96875 L 8.617188 20.96875 L 4.878906 15.230469 L 4.757812 15.3125 Z M 8.996094 20.96875 L 9.242188 20.972656 L 9.183594 20.742188 L 9.46875 19.027344 L 10.003906 20.523438 L 9.925781 20.972656 L 10.074219 20.972656 L 10.105469 20.800781 L 10.164062 20.972656 L 10.320312 20.972656 L 10.152344 20.507812 L 10.371094 19.21875 L 10.429688 20.972656 L 10.582031 20.972656 L 10.628906 19.816406 L 10.855469 20.710938 L 10.839844 20.789062 L 10.761719 20.976562 L 11.070312 20.976562 L 11.015625 20.75 L 11.421875 19.769531 L 11.253906 20.550781 L 11.230469 20.589844 L 11.242188 20.597656 L 11.160156 20.976562 L 11.308594 20.976562 L 11.390625 20.601562 L 15.4375 12.875 L 15.308594 12.804688 L 11.503906 20.070312 L 11.726562 19.023438 L 14.210938 13.039062 L 14.078125 12.980469 L 11.898438 18.238281 L 12.886719 13.621094 L 12.746094 13.589844 L 11.589844 18.980469 L 11.113281 20.128906 L 13.21875 9.121094 L 13.078125 9.09375 L 10.917969 20.375 L 10.648438 19.304688 L 10.730469 17.082031 L 11.636719 11.730469 L 11.496094 11.703125 L 10.777344 15.957031 L 10.945312 11.53125 L 10.800781 11.523438 L 10.589844 17.066406 L 10.46875 17.773438 L 10.339844 13.878906 L 10.457031 13.195312 L 10.3125 13.171875 L 10.304688 13.210938 L 10.171875 13.214844 L 10.195312 13.871094 L 9.824219 16.070312 L 8.0625 9.140625 L 7.921875 9.175781 L 9.765625 16.421875 L 9.421875 18.453125 L 8.082031 14.703125 L 7.949219 14.753906 L 9.371094 18.75 L 9.09375 20.402344 L 7.574219 14.59375 L 7.433594 14.632812 L 9.035156 20.75 Z M 11.753906 20.976562 L 11.941406 20.976562 L 16.058594 15.40625 L 15.945312 15.316406 Z M 9.523438 18.734375 L 10.050781 20.230469 L 10.324219 18.625 L 9.851562 16.769531 Z M 9.910156 16.414062 L 10.332031 18.074219 L 10.21875 14.597656 Z M 10.492188 18.503906 L 10.5 18.726562 L 10.523438 18.8125 L 10.546875 18.191406 Z M 10.492188 18.503906 "/>
<path style=" stroke:none;fill-rule:evenodd;fill:rgb(63.137255%,63.137255%,63.137255%);fill-opacity:1;" d="M 8.441406 20.96875 L 8.617188 20.96875 L 4.878906 15.230469 L 4.757812 15.3125 Z M 8.996094 20.96875 L 9.242188 20.972656 L 9.183594 20.742188 L 9.46875 19.027344 L 10.003906 20.523438 L 9.925781 20.972656 L 10.074219 20.972656 L 10.105469 20.800781 L 10.164062 20.972656 L 10.320312 20.972656 L 10.152344 20.507812 L 10.371094 19.21875 L 10.429688 20.972656 L 10.582031 20.972656 L 10.628906 19.816406 L 10.855469 20.710938 L 10.839844 20.789062 L 10.761719 20.976562 L 11.070312 20.976562 L 11.015625 20.75 L 11.421875 19.769531 L 11.253906 20.550781 L 11.230469 20.589844 L 11.242188 20.597656 L 11.160156 20.976562 L 11.308594 20.976562 L 11.390625 20.601562 L 15.4375 12.875 L 15.308594 12.804688 L 11.503906 20.070312 L 11.726562 19.023438 L 14.210938 13.039062 L 14.078125 12.980469 L 11.898438 18.238281 L 12.886719 13.621094 L 12.746094 13.589844 L 11.589844 18.980469 L 11.113281 20.128906 L 13.21875 9.121094 L 13.078125 9.09375 L 10.917969 20.375 L 10.648438 19.304688 L 10.730469 17.082031 L 11.636719 11.730469 L 11.496094 11.703125 L 10.777344 15.957031 L 10.945312 11.53125 L 10.800781 11.523438 L 10.589844 17.066406 L 10.46875 17.773438 L 10.339844 13.878906 L 10.457031 13.195312 L 10.3125 13.171875 L 10.304688 13.210938 L 10.171875 13.214844 L 10.195312 13.871094 L 9.824219 16.070312 L 8.0625 9.140625 L 7.921875 9.175781 L 9.765625 16.421875 L 9.421875 18.453125 L 8.082031 14.703125 L 7.949219 14.753906 L 9.371094 18.75 L 9.09375 20.402344 L 7.574219 14.59375 L 7.433594 14.632812 L 9.035156 20.75 Z M 11.753906 20.976562 L 11.941406 20.976562 L 16.058594 15.40625 L 15.945312 15.316406 Z M 9.523438 18.734375 L 10.050781 20.230469 L 10.324219 18.625 L 9.851562 16.769531 Z M 9.910156 16.414062 L 10.332031 18.074219 L 10.21875 14.597656 Z M 10.492188 18.503906 L 10.5 18.726562 L 10.523438 18.8125 L 10.546875 18.191406 Z M 10.492188 18.503906 "/>
<path style=" stroke:none;fill-rule:evenodd;fill:rgb(78.431373%,84.705882%,31.764706%);fill-opacity:1;" d="M 17.917969 12.964844 C 18.605469 11.988281 18.457031 10.664062 17.582031 10.007812 C 16.707031 9.351562 15.4375 9.617188 14.746094 10.59375 C 14.054688 11.574219 14.203125 12.898438 15.078125 13.554688 C 15.957031 14.207031 17.226562 13.945312 17.917969 12.964844 Z M 17.917969 12.964844 "/>
<path style=" stroke:none;fill-rule:evenodd;fill:rgb(99.607843%,99.607843%,99.607843%);fill-opacity:1;" d="M 16.464844 10.445312 C 16.515625 10.429688 16.644531 10.265625 16.574219 10.179688 C 16.347656 9.875 15.605469 10.195312 15.40625 10.492188 C 15.300781 10.640625 15.355469 10.8125 15.433594 10.867188 C 15.507812 10.921875 15.664062 10.960938 15.800781 10.800781 C 16.019531 10.542969 16.175781 10.550781 16.464844 10.445312 Z M 16.464844 10.445312 "/>
<path style=" stroke:none;fill-rule:evenodd;fill:rgb(99.607843%,99.607843%,99.607843%);fill-opacity:1;" d="M 15.25 11.066406 C 14.988281 10.929688 14.675781 11.527344 14.671875 11.683594 C 14.671875 11.78125 14.730469 11.894531 14.808594 11.921875 C 15.089844 12.023438 15.472656 11.1875 15.25 11.066406 Z M 15.25 11.066406 "/>
<path style=" stroke:none;fill-rule:evenodd;fill:rgb(95.294118%,43.137255%,25.490196%);fill-opacity:1;" d="M 9.316406 6.925781 C 8.800781 5.839844 7.597656 5.351562 6.621094 5.839844 C 5.648438 6.328125 5.277344 7.605469 5.792969 8.691406 C 6.308594 9.78125 7.515625 10.265625 8.488281 9.78125 C 9.460938 9.292969 9.832031 8.015625 9.316406 6.925781 Z M 9.316406 6.925781 "/>
<path style=" stroke:none;fill-rule:evenodd;fill:rgb(99.607843%,99.607843%,99.607843%);fill-opacity:1;" d="M 6.472656 7.0625 C 6.484375 7.007812 6.402344 6.816406 6.296875 6.835938 C 5.925781 6.898438 5.855469 7.722656 6.011719 8.042969 C 6.09375 8.210938 6.265625 8.242188 6.347656 8.195312 C 6.433594 8.152344 6.539062 8.03125 6.464844 7.832031 C 6.347656 7.511719 6.425781 7.371094 6.472656 7.0625 Z M 6.472656 7.0625 "/>
<path style=" stroke:none;fill-rule:evenodd;fill:rgb(99.607843%,99.607843%,99.607843%);fill-opacity:1;" d="M 6.433594 8.457031 C 6.195312 8.625 6.5625 9.195312 6.691406 9.269531 C 6.773438 9.320312 6.902344 9.316406 6.960938 9.257812 C 7.179688 9.050781 6.640625 8.3125 6.433594 8.457031 Z M 6.433594 8.457031 "/>
<path style=" stroke:none;fill-rule:evenodd;fill:rgb(95.294118%,43.137255%,25.490196%);fill-opacity:1;" d="M 15.402344 12.671875 C 15.839844 11.546875 15.378906 10.300781 14.375 9.886719 C 13.367188 9.476562 12.199219 10.050781 11.761719 11.175781 C 11.324219 12.296875 11.785156 13.542969 12.792969 13.957031 C 13.796875 14.371094 14.964844 13.796875 15.402344 12.671875 Z M 15.402344 12.671875 "/>
<path style=" stroke:none;fill-rule:evenodd;fill:rgb(99.607843%,99.607843%,99.607843%);fill-opacity:1;" d="M 13.394531 10.597656 C 13.441406 10.566406 13.523438 10.375 13.4375 10.304688 C 13.144531 10.070312 12.503906 10.570312 12.375 10.90625 C 12.3125 11.078125 12.40625 11.230469 12.492188 11.265625 C 12.582031 11.300781 12.738281 11.296875 12.835938 11.105469 C 12.988281 10.800781 13.136719 10.769531 13.394531 10.597656 Z M 13.394531 10.597656 "/>
<path style=" stroke:none;fill-rule:evenodd;fill:rgb(95.294118%,43.137255%,25.490196%);fill-opacity:1;" d="M 10.679688 11.453125 C 10.164062 10.363281 8.960938 9.878906 7.988281 10.367188 C 7.011719 10.851562 6.640625 12.128906 7.15625 13.21875 C 7.671875 14.304688 8.878906 14.792969 9.851562 14.304688 C 10.824219 13.816406 11.195312 12.539062 10.679688 11.453125 Z M 10.679688 11.453125 "/>
<path style=" stroke:none;fill-rule:evenodd;fill:rgb(99.607843%,99.607843%,99.607843%);fill-opacity:1;" d="M 7.835938 11.589844 C 7.847656 11.53125 7.765625 11.339844 7.660156 11.359375 C 7.289062 11.421875 7.21875 12.25 7.375 12.570312 C 7.457031 12.734375 7.628906 12.769531 7.710938 12.722656 C 7.796875 12.679688 7.902344 12.554688 7.828125 12.355469 C 7.710938 12.035156 7.789062 11.894531 7.835938 11.589844 Z M 7.835938 11.589844 "/>
<path style=" stroke:none;fill-rule:evenodd;fill:rgb(99.607843%,99.607843%,99.607843%);fill-opacity:1;" d="M 7.796875 12.980469 C 7.558594 13.152344 7.925781 13.71875 8.054688 13.796875 C 8.136719 13.84375 8.265625 13.84375 8.324219 13.785156 C 8.542969 13.574219 8.003906 12.835938 7.796875 12.980469 Z M 7.796875 12.980469 "/>
<path style=" stroke:none;fill-rule:evenodd;fill:rgb(49.019608%,52.941176%,84.705882%);fill-opacity:1;" d="M 17.394531 11.558594 C 18.007812 10.523438 17.753906 9.214844 16.828125 8.636719 C 15.902344 8.058594 14.65625 8.425781 14.046875 9.460938 C 13.433594 10.496094 13.691406 11.800781 14.613281 12.378906 C 15.539062 12.960938 16.785156 12.589844 17.394531 11.558594 Z M 17.394531 11.558594 "/>
<path style=" stroke:none;fill-rule:evenodd;fill:rgb(99.607843%,99.607843%,99.607843%);fill-opacity:1;" d="M 15.75 9.171875 C 15.796875 9.148438 15.910156 8.972656 15.835938 8.890625 C 15.585938 8.605469 14.875 8.992188 14.695312 9.300781 C 14.605469 9.460938 14.671875 9.625 14.753906 9.675781 C 14.832031 9.722656 14.988281 9.75 15.113281 9.574219 C 15.3125 9.300781 15.46875 9.292969 15.75 9.171875 Z M 15.75 9.171875 "/>
<path style=" stroke:none;fill-rule:evenodd;fill:rgb(99.607843%,99.607843%,99.607843%);fill-opacity:1;" d="M 14.585938 9.890625 C 14.316406 9.773438 14.054688 10.394531 14.058594 10.550781 C 14.066406 10.644531 14.136719 10.757812 14.214844 10.777344 C 14.503906 10.855469 14.820312 9.988281 14.585938 9.890625 Z M 14.585938 9.890625 "/>
<path style=" stroke:none;fill-rule:evenodd;fill:rgb(49.019608%,52.941176%,84.705882%);fill-opacity:1;" d="M 7.925781 10.039062 C 7.335938 8.992188 6.101562 8.59375 5.164062 9.148438 C 4.226562 9.707031 3.941406 11.007812 4.527344 12.054688 C 5.117188 13.101562 6.351562 13.5 7.289062 12.945312 C 8.226562 12.390625 8.511719 11.085938 7.925781 10.039062 Z M 7.925781 10.039062 "/>
<path style=" stroke:none;fill-rule:evenodd;fill:rgb(99.607843%,99.607843%,99.607843%);fill-opacity:1;" d="M 5.097656 10.378906 C 5.105469 10.324219 5.011719 10.140625 4.902344 10.164062 C 4.539062 10.253906 4.527344 11.082031 4.703125 11.390625 C 4.796875 11.550781 4.96875 11.570312 5.050781 11.519531 C 5.128906 11.46875 5.226562 11.339844 5.140625 11.144531 C 5 10.835938 5.070312 10.691406 5.097656 10.378906 Z M 5.097656 10.378906 "/>
<path style=" stroke:none;fill-rule:evenodd;fill:rgb(99.607843%,99.607843%,99.607843%);fill-opacity:1;" d="M 5.152344 11.773438 C 4.925781 11.960938 5.328125 12.5 5.464844 12.566406 C 5.546875 12.609375 5.675781 12.597656 5.730469 12.535156 C 5.933594 12.3125 5.347656 11.613281 5.152344 11.773438 Z M 5.152344 11.773438 "/>
<path style=" stroke:none;fill-rule:evenodd;fill:rgb(52.941176%,27.058824%,26.666667%);fill-opacity:1;" d="M 11.914062 6.667969 C 11.914062 5.457031 11.035156 4.476562 9.953125 4.476562 C 8.867188 4.476562 7.988281 5.457031 7.988281 6.667969 C 7.988281 7.878906 8.867188 8.855469 9.953125 8.855469 C 11.035156 8.855469 11.914062 7.878906 11.914062 6.667969 Z M 11.914062 6.667969 "/>
<path style=" stroke:none;fill-rule:evenodd;fill:rgb(99.607843%,99.607843%,99.607843%);fill-opacity:1;" d="M 9.296875 5.511719 C 9.332031 5.464844 9.339844 5.253906 9.234375 5.222656 C 8.875 5.113281 8.460938 5.824219 8.464844 6.183594 C 8.46875 6.371094 8.609375 6.472656 8.703125 6.472656 C 8.796875 6.46875 8.945312 6.40625 8.964844 6.195312 C 8.992188 5.851562 9.125 5.765625 9.296875 5.511719 Z M 9.296875 5.511719 "/>
<path style=" stroke:none;fill-rule:evenodd;fill:rgb(99.607843%,99.607843%,99.607843%);fill-opacity:1;" d="M 8.671875 6.742188 C 8.378906 6.789062 8.46875 7.464844 8.554688 7.59375 C 8.605469 7.671875 8.722656 7.730469 8.800781 7.703125 C 9.085938 7.613281 8.917969 6.707031 8.671875 6.742188 Z M 8.671875 6.742188 "/>
<path style=" stroke:none;fill-rule:evenodd;fill:rgb(30.980392%,73.72549%,75.686275%);fill-opacity:1;" d="M 15.421875 7.398438 C 15.554688 6.199219 14.792969 5.121094 13.71875 4.992188 C 12.644531 4.863281 11.660156 5.734375 11.527344 6.9375 C 11.390625 8.140625 12.15625 9.21875 13.230469 9.34375 C 14.304688 9.472656 15.285156 8.601562 15.421875 7.398438 Z M 15.421875 7.398438 "/>
<path style=" stroke:none;fill-rule:evenodd;fill:rgb(99.607843%,99.607843%,99.607843%);fill-opacity:1;" d="M 12.953125 5.941406 C 12.988281 5.898438 13.023438 5.695312 12.921875 5.648438 C 12.578125 5.496094 12.089844 6.15625 12.050781 6.511719 C 12.035156 6.695312 12.160156 6.820312 12.253906 6.828125 C 12.351562 6.835938 12.5 6.792969 12.542969 6.582031 C 12.613281 6.246094 12.75 6.175781 12.953125 5.941406 Z M 12.953125 5.941406 "/>
<path style=" stroke:none;fill-rule:evenodd;fill:rgb(30.980392%,73.72549%,75.686275%);fill-opacity:1;" d="M 18.496094 14.804688 C 18.753906 13.625 18.109375 12.46875 17.054688 12.226562 C 15.996094 11.980469 14.929688 12.738281 14.671875 13.917969 C 14.414062 15.101562 15.0625 16.253906 16.117188 16.5 C 17.171875 16.746094 18.238281 15.984375 18.496094 14.804688 Z M 18.496094 14.804688 "/>
<path style=" stroke:none;fill-rule:evenodd;fill:rgb(99.607843%,99.607843%,99.607843%);fill-opacity:1;" d="M 16.195312 13.085938 C 16.234375 13.046875 16.289062 12.84375 16.191406 12.789062 C 15.867188 12.605469 15.308594 13.203125 15.238281 13.554688 C 15.203125 13.734375 15.316406 13.871094 15.410156 13.890625 C 15.5 13.910156 15.65625 13.882812 15.71875 13.675781 C 15.824219 13.351562 15.96875 13.292969 16.195312 13.085938 Z M 16.195312 13.085938 "/>
<path style=" stroke:none;fill-rule:evenodd;fill:rgb(99.607843%,99.607843%,99.607843%);fill-opacity:1;" d="M 15.316406 14.144531 C 15.027344 14.125 14.96875 14.804688 15.023438 14.949219 C 15.058594 15.039062 15.160156 15.121094 15.242188 15.113281 C 15.535156 15.089844 15.570312 14.164062 15.316406 14.144531 Z M 15.316406 14.144531 "/>
<path style=" stroke:none;fill-rule:evenodd;fill:rgb(78.431373%,84.705882%,31.764706%);fill-opacity:1;" d="M 5.449219 12.585938 C 4.753906 11.609375 3.484375 11.351562 2.609375 12.007812 C 1.738281 12.667969 1.59375 13.992188 2.285156 14.96875 C 2.980469 15.945312 4.253906 16.203125 5.125 15.542969 C 6 14.886719 6.144531 13.5625 5.449219 12.585938 Z M 5.449219 12.585938 "/>
<path style=" stroke:none;fill-rule:evenodd;fill:rgb(99.607843%,99.607843%,99.607843%);fill-opacity:1;" d="M 2.675781 13.238281 C 2.675781 13.183594 2.5625 13.007812 2.457031 13.046875 C 2.109375 13.179688 2.179688 14 2.390625 14.289062 C 2.496094 14.4375 2.675781 14.4375 2.746094 14.378906 C 2.824219 14.320312 2.90625 14.179688 2.796875 13.996094 C 2.628906 13.703125 2.683594 13.550781 2.675781 13.238281 Z M 2.675781 13.238281 "/>
<path style=" stroke:none;fill-rule:evenodd;fill:rgb(99.607843%,99.607843%,99.607843%);fill-opacity:1;" d="M 2.878906 14.617188 C 2.671875 14.828125 3.128906 15.320312 3.273438 15.371094 C 3.359375 15.402344 3.484375 15.378906 3.535156 15.3125 C 3.710938 15.066406 3.058594 14.433594 2.878906 14.617188 Z M 2.878906 14.617188 "/>
<path style=" stroke:none;fill-rule:evenodd;fill:rgb(30.980392%,73.72549%,75.686275%);fill-opacity:1;" d="M 8.789062 13.085938 C 8.1875 12.046875 6.949219 11.664062 6.015625 12.230469 C 5.085938 12.800781 4.816406 14.105469 5.417969 15.144531 C 6.019531 16.1875 7.257812 16.570312 8.191406 16 C 9.121094 15.433594 9.390625 14.128906 8.789062 13.085938 Z M 8.789062 13.085938 "/>
<path style=" stroke:none;fill-rule:evenodd;fill:rgb(99.607843%,99.607843%,99.607843%);fill-opacity:1;" d="M 5.96875 13.464844 C 5.972656 13.410156 5.875 13.222656 5.769531 13.25 C 5.410156 13.34375 5.402344 14.171875 5.585938 14.480469 C 5.679688 14.640625 5.855469 14.65625 5.933594 14.605469 C 6.011719 14.554688 6.109375 14.421875 6.015625 14.230469 C 5.875 13.921875 5.945312 13.773438 5.96875 13.464844 Z M 5.96875 13.464844 "/>
<path style=" stroke:none;fill-rule:evenodd;fill:rgb(99.607843%,99.607843%,99.607843%);fill-opacity:1;" d="M 6.039062 14.855469 C 5.8125 15.046875 6.222656 15.582031 6.359375 15.648438 C 6.445312 15.683594 6.570312 15.671875 6.628906 15.609375 C 6.828125 15.386719 6.234375 14.691406 6.039062 14.855469 Z M 6.039062 14.855469 "/>
<path style=" stroke:none;fill-rule:evenodd;fill:rgb(78.431373%,84.705882%,31.764706%);fill-opacity:1;" d="M 12.710938 9.777344 C 12.710938 8.566406 11.832031 7.585938 10.75 7.585938 C 9.664062 7.585938 8.785156 8.566406 8.785156 9.777344 C 8.785156 10.988281 9.664062 11.964844 10.75 11.964844 C 11.832031 11.964844 12.710938 10.988281 12.710938 9.777344 Z M 12.710938 9.777344 "/>
<path style=" stroke:none;fill-rule:evenodd;fill:rgb(99.607843%,99.607843%,99.607843%);fill-opacity:1;" d="M 10.09375 8.621094 C 10.125 8.574219 10.136719 8.363281 10.027344 8.332031 C 9.671875 8.222656 9.253906 8.933594 9.261719 9.292969 C 9.261719 9.480469 9.402344 9.585938 9.5 9.582031 C 9.59375 9.582031 9.738281 9.515625 9.757812 9.304688 C 9.789062 8.964844 9.917969 8.875 10.09375 8.621094 Z M 10.09375 8.621094 "/>
<path style=" stroke:none;fill-rule:evenodd;fill:rgb(99.607843%,99.607843%,99.607843%);fill-opacity:1;" d="M 9.464844 9.855469 C 9.175781 9.898438 9.265625 10.574219 9.351562 10.703125 C 9.402344 10.78125 9.515625 10.839844 9.597656 10.8125 C 9.878906 10.722656 9.714844 9.816406 9.464844 9.855469 Z M 9.464844 9.855469 "/>
</g>
</svg>
