<svg version="1.1" xmlns="http://www.w3.org/2000/svg" viewBox="0 0 1279 823.5552440824968" width="1279" height="823.5552440824968">
  <!-- svg-source:excalidraw -->
  
  <defs>
    <style class="style-fonts">
      @font-face {
        font-family: "Virgil";
        src: url("https://excalidraw.com/Virgil.woff2");
      }
      @font-face {
        font-family: "Cascadia";
        src: url("https://excalidraw.com/Cascadia.woff2");
      }
    </style>
  </defs>
  <g stroke-linecap="round" transform="translate(544.2661437988281 690.5552440824968) rotate(0 95.5 61.5)"><path d="M0 0 L191 0 L191 123 L0 123" stroke="none" stroke-width="0" fill="#eae6ff"></path><path d="M0 0 C44.13 0, 88.25 0, 191 0 M0 0 C43.65 0, 87.29 0, 191 0 M191 0 C191 26.06, 191 52.11, 191 123 M191 0 C191 29.13, 191 58.26, 191 123 M191 123 C130.6 123, 70.19 123, 0 123 M191 123 C146.46 123, 101.93 123, 0 123 M0 123 C0 76.08, 0 29.17, 0 0 M0 123 C0 80.41, 0 37.83, 0 0" stroke="#000000" stroke-width="1" fill="none"></path></g><g transform="translate(581.1723937988281 784.5552440824968) rotate(0 58.59375 12)"><text x="58.59375" y="0" font-family="Cascadia, Segoe UI Emoji" font-size="20px" fill="#000000" text-anchor="middle" style="white-space: pre;" direction="ltr" dominant-baseline="text-before-edge">serializer</text></g><g stroke-linecap="round"><g transform="translate(553.6120581951457 748.4562071601965) rotate(0 84.79756673177087 0)"><path d="M0 0 C41.75 0, 83.5 0, 169.6 0" stroke="#449b82" stroke-width="2.5" fill="none" stroke-dasharray="8 10"></path></g><g transform="translate(553.6120581951457 748.4562071601965) rotate(0 84.79756673177087 0)"><path d="M169.6 0 L156 6.34 L156 -6.34 L169.6 0" stroke="none" stroke-width="0" fill="#449b82" fill-rule="evenodd"></path><path d="M169.6 0 C166.25 1.56, 162.9 3.12, 156 6.34 M156 6.34 C156 3.77, 156 1.19, 156 -6.34 M156 -6.34 C161.18 -3.92, 166.37 -1.5, 169.6 0 M169.6 0 C169.6 0, 169.6 0, 169.6 0" stroke="#449b82" stroke-width="2.5" fill="none"></path></g></g><mask></mask><g stroke-linecap="round" transform="translate(605.4248657226562 729.8335448426083) rotate(0 34 18.5)"><path d="M0 0 L68 0 L68 37 L0 37" stroke="none" stroke-width="0" fill="#f9f7ed"></path><path d="M0 0 C16.56 0, 33.12 0, 68 0 M0 0 C22.63 0, 45.26 0, 68 0 M68 0 C68 11.36, 68 22.72, 68 37 M68 0 C68 9.41, 68 18.81, 68 37 M68 37 C41.05 37, 14.1 37, 0 37 M68 37 C42.58 37, 17.16 37, 0 37 M0 37 C0 25.02, 0 13.04, 0 0 M0 37 C0 27.92, 0 18.85, 0 0" stroke="#000000" stroke-width="1" fill="none"></path></g><g transform="translate(611.2998657226562 738.7335448426084) rotate(0 28.125 9.600000000000023)"><text x="28.125" y="0" font-family="Cascadia, Segoe UI Emoji" font-size="16px" fill="#000000" text-anchor="middle" style="white-space: pre;" direction="ltr" dominant-baseline="text-before-edge">scheme</text></g><g stroke-linecap="round" transform="translate(10 10) rotate(0 629.5 155)"><path d="M0 0 L1259 0 L1259 310 L0 310" stroke="none" stroke-width="0" fill="#d5e8d4"></path><path d="M0 0 C450.26 0, 900.52 0, 1259 0 M0 0 C461 0, 922 0, 1259 0 M1259 0 C1259 75.32, 1259 150.63, 1259 310 M1259 0 C1259 95.06, 1259 190.13, 1259 310 M1259 310 C773.47 310, 287.95 310, 0 310 M1259 310 C853.97 310, 448.93 310, 0 310 M0 310 C0 197.7, 0 85.41, 0 0 M0 310 C0 215.52, 0 121.04, 0 0" stroke="#000000" stroke-width="1" fill="none"></path></g><g transform="translate(557.46875 15) rotate(0 82.03125 12)"><text x="82.03125" y="0" font-family="Cascadia, Segoe UI Emoji" font-size="20px" fill="#000000" text-anchor="middle" style="white-space: pre;" direction="ltr" dominant-baseline="text-before-edge">runtime.Object</text></g><g stroke-linecap="round" transform="translate(221.76179732436867 241.05535839850802) rotate(0 33.5 19.5)"><path d="M0 0 L67 0 L67 39 L0 39" stroke="none" stroke-width="0" fill="#f2ffff"></path><path d="M0 0 C17.35 0, 34.71 0, 67 0 M0 0 C18.36 0, 36.71 0, 67 0 M67 0 C67 10.46, 67 20.92, 67 39 M67 0 C67 14.85, 67 29.71, 67 39 M67 39 C42.66 39, 18.32 39, 0 39 M67 39 C48.94 39, 30.89 39, 0 39 M0 39 C0 26.12, 0 13.23, 0 0 M0 39 C0 26.41, 0 13.83, 0 0" stroke="#000000" stroke-width="1" fill="none"></path></g><g transform="translate(227.13679732436867 250.95535839850803) rotate(0 28.125 9.600000000000001)"><text x="28.125" y="0" font-family="Cascadia, Segoe UI Emoji" font-size="16px" fill="#000000" text-anchor="middle" style="white-space: pre;" direction="ltr" dominant-baseline="text-before-edge">&amp;Job{}</text></g><g stroke-linecap="round" transform="translate(22.369953123123082 241.05489241165344) rotate(0 99.50000000000006 19.5)"><path d="M0 0 L199 0 L199 39 L0 39" stroke="none" stroke-width="0" fill="#f2ffff"></path><path d="M0 0 C75.76 0, 151.53 0, 199 0 M0 0 C70.7 0, 141.4 0, 199 0 M199 0 C199 15.07, 199 30.15, 199 39 M199 0 C199 13.01, 199 26.02, 199 39 M199 39 C146.9 39, 94.79 39, 0 39 M199 39 C157.77 39, 116.54 39, 0 39 M0 39 C0 27.79, 0 16.57, 0 0 M0 39 C0 24.92, 0 10.84, 0 0" stroke="#000000" stroke-width="1" fill="none"></path></g><g transform="translate(27.369953123123082 250.95489241165345) rotate(0 93.75000000000006 9.600000000000001)"><text x="0" y="0" font-family="Cascadia, Segoe UI Emoji" font-size="16px" fill="#000000" text-anchor="start" style="white-space: pre;" direction="ltr" dominant-baseline="text-before-edge">{"batch","v1","Job"}</text></g><g stroke-linecap="round" transform="translate(221.76179732436867 187.88064854093068) rotate(0 33.5 19.5)"><path d="M0 0 L67 0 L67 39 L0 39" stroke="none" stroke-width="0" fill="#f2ffff"></path><path d="M0 0 C17.35 0, 34.71 0, 67 0 M0 0 C18.36 0, 36.71 0, 67 0 M67 0 C67 10.46, 67 20.92, 67 39 M67 0 C67 14.85, 67 29.71, 67 39 M67 39 C42.66 39, 18.32 39, 0 39 M67 39 C48.94 39, 30.89 39, 0 39 M0 39 C0 26.12, 0 13.23, 0 0 M0 39 C0 26.41, 0 13.83, 0 0" stroke="#000000" stroke-width="1" fill="none"></path></g><g transform="translate(227.13679732436867 197.78064854093066) rotate(0 28.125 9.6)"><text x="28.125" y="0" font-family="Cascadia, Segoe UI Emoji" font-size="16px" fill="#000000" text-anchor="middle" style="white-space: pre;" direction="ltr" dominant-baseline="text-before-edge">&amp;Pod{}</text></g><g stroke-linecap="round" transform="translate(22.369953123123082 187.8801825540761) rotate(0 99.50000000000006 19.5)"><path d="M0 0 L199 0 L199 39 L0 39" stroke="none" stroke-width="0" fill="#f2ffff"></path><path d="M0 0 C75.76 0, 151.53 0, 199 0 M0 0 C70.7 0, 141.4 0, 199 0 M199 0 C199 15.07, 199 30.15, 199 39 M199 0 C199 13.01, 199 26.02, 199 39 M199 39 C146.9 39, 94.79 39, 0 39 M199 39 C157.77 39, 116.54 39, 0 39 M0 39 C0 27.79, 0 16.57, 0 0 M0 39 C0 24.92, 0 10.84, 0 0" stroke="#000000" stroke-width="1" fill="none"></path></g><g transform="translate(27.369953123123082 197.7801825540761) rotate(0 70.3125 9.600000000000001)"><text x="0" y="0" font-family="Cascadia, Segoe UI Emoji" font-size="16px" fill="#000000" text-anchor="start" style="white-space: pre;" direction="ltr" dominant-baseline="text-before-edge">{"","v1","Pod"}</text></g><g stroke-linecap="round"><g transform="translate(305.7326407092369 90.40331245040522) rotate(0 0 103.85670253208693)"><path d="M0 0 C0 45.38, 0 90.76, 0 207.71" stroke="#000000" stroke-width="1.5" fill="none" stroke-dasharray="8 9"></path></g></g><mask></mask><g stroke-linecap="round"><g transform="translate(692.0012593383292 92.34191108321771) rotate(0 0 103.5666111537387)"><path d="M0 0 C0 45.25, 0 90.51, 0 207.13" stroke="#000000" stroke-width="1.5" fill="none" stroke-dasharray="8 9"></path></g></g><mask></mask><g stroke-linecap="round" transform="translate(1087.8733928414792 187.88064854093068) rotate(0 82.49999999999989 19.5)"><path d="M0 0 L165 0 L165 39 L0 39" stroke="none" stroke-width="0" fill="#f2ffff"></path><path d="M0 0 C42.74 0, 85.47 0, 165 0 M0 0 C45.21 0, 90.42 0, 165 0 M165 0 C165 10.46, 165 20.92, 165 39 M165 0 C165 14.85, 165 29.71, 165 39 M165 39 C105.06 39, 45.11 39, 0 39 M165 39 C120.53 39, 76.07 39, 0 39 M0 39 C0 26.12, 0 13.23, 0 0 M0 39 C0 26.41, 0 13.83, 0 0" stroke="#000000" stroke-width="1" fill="none"></path></g><g transform="translate(1104.7483928414792 197.78064854093066) rotate(0 65.62499999999989 9.6)"><text x="65.625" y="0" font-family="Cascadia, Segoe UI Emoji" font-size="16px" fill="#000000" text-anchor="middle" style="white-space: pre;" direction="ltr" dominant-baseline="text-before-edge">&amp;ListOptions{}</text></g><g stroke-linecap="round" transform="translate(713.4816017142825 187.88064854093068) rotate(0 187 19.5)"><path d="M0 0 L374 0 L374 39 L0 39" stroke="none" stroke-width="0" fill="#f2ffff"></path><path d="M0 0 C142.39 0, 284.78 0, 374 0 M0 0 C132.87 0, 265.74 0, 374 0 M374 0 C374 15.07, 374 30.15, 374 39 M374 0 C374 13.01, 374 26.02, 374 39 M374 39 C276.08 39, 178.15 39, 0 39 M374 39 C296.51 39, 219.02 39, 0 39 M0 39 C0 27.79, 0 16.57, 0 0 M0 39 C0 24.92, 0 10.84, 0 0" stroke="#000000" stroke-width="1" fill="none"></path></g><g transform="translate(741.1066017142825 197.78064854093066) rotate(0 159.375 9.6)"><text x="159.375" y="0" font-family="Cascadia, Segoe UI Emoji" font-size="16px" fill="#000000" text-anchor="middle" style="white-space: pre;" direction="ltr" dominant-baseline="text-before-edge">{"meta.k8s.io","v1","ListOptions"}</text></g><g stroke-linecap="round" transform="translate(1087.8733928414795 241.05535839850802) rotate(0 82.5 19.5)"><path d="M0 0 L165 0 L165 39 L0 39" stroke="none" stroke-width="0" fill="#f2ffff"></path><path d="M0 0 C42.74 0, 85.47 0, 165 0 M0 0 C45.21 0, 90.42 0, 165 0 M165 0 C165 10.46, 165 20.92, 165 39 M165 0 C165 14.85, 165 29.71, 165 39 M165 39 C105.06 39, 45.11 39, 0 39 M165 39 C120.53 39, 76.07 39, 0 39 M0 39 C0 26.12, 0 13.23, 0 0 M0 39 C0 26.41, 0 13.83, 0 0" stroke="#000000" stroke-width="1" fill="none"></path></g><g transform="translate(1128.1858928414795 250.955358398508) rotate(0 42.1875 9.600000000000001)"><text x="42.1875" y="0" font-family="Cascadia, Segoe UI Emoji" font-size="16px" fill="#000000" text-anchor="middle" style="white-space: pre;" direction="ltr" dominant-baseline="text-before-edge">&amp;Status{}</text></g><g stroke-linecap="round" transform="translate(713.4816017142825 241.05535839850802) rotate(0 187 19.5)"><path d="M0 0 L374 0 L374 39 L0 39" stroke="none" stroke-width="0" fill="#f2ffff"></path><path d="M0 0 C142.39 0, 284.78 0, 374 0 M0 0 C132.87 0, 265.74 0, 374 0 M374 0 C374 15.07, 374 30.15, 374 39 M374 0 C374 13.01, 374 26.02, 374 39 M374 39 C276.08 39, 178.15 39, 0 39 M374 39 C296.51 39, 219.02 39, 0 39 M0 39 C0 27.79, 0 16.57, 0 0 M0 39 C0 24.92, 0 10.84, 0 0" stroke="#000000" stroke-width="1" fill="none"></path></g><g transform="translate(816.1066017142825 250.955358398508) rotate(0 84.375 9.600000000000001)"><text x="84.375" y="0" font-family="Cascadia, Segoe UI Emoji" font-size="16px" fill="#000000" text-anchor="middle" style="white-space: pre;" direction="ltr" dominant-baseline="text-before-edge">{"","v1","Status"}</text></g><g stroke-linecap="round" transform="translate(568.6588179794085 241.05535839850802) rotate(0 52 19.5)"><path d="M0 0 L104 0 L104 39 L0 39" stroke="none" stroke-width="0" fill="#f2ffff"></path><path d="M0 0 C26.94 0, 53.87 0, 104 0 M0 0 C28.49 0, 56.99 0, 104 0 M104 0 C104 10.46, 104 20.92, 104 39 M104 0 C104 14.85, 104 29.71, 104 39 M104 39 C66.22 39, 28.43 39, 0 39 M104 39 C75.97 39, 47.95 39, 0 39 M0 39 C0 26.12, 0 13.23, 0 0 M0 39 C0 26.41, 0 13.83, 0 0" stroke="#000000" stroke-width="1" fill="none"></path></g><g transform="translate(573.7838179794085 250.955358398508) rotate(0 46.875 9.600000000000001)"><text x="46.875" y="0" font-family="Cascadia, Segoe UI Emoji" font-size="16px" fill="#000000" text-anchor="middle" style="white-space: pre;" direction="ltr" dominant-baseline="text-before-edge">&amp;JobList{}</text></g><g stroke-linecap="round" transform="translate(330.26697377816254 240.97448876582007) rotate(0 119 19.5)"><path d="M0 0 L238 0 L238 39 L0 39" stroke="none" stroke-width="0" fill="#f2ffff"></path><path d="M0 0 C90.61 0, 181.22 0, 238 0 M0 0 C84.55 0, 169.11 0, 238 0 M238 0 C238 15.07, 238 30.15, 238 39 M238 0 C238 13.01, 238 26.02, 238 39 M238 39 C175.69 39, 113.37 39, 0 39 M238 39 C188.69 39, 139.37 39, 0 39 M0 39 C0 27.79, 0 16.57, 0 0 M0 39 C0 24.92, 0 10.84, 0 0" stroke="#000000" stroke-width="1" fill="none"></path></g><g transform="translate(335.26697377816254 250.87448876582005) rotate(0 112.5 9.600000000000001)"><text x="0" y="0" font-family="Cascadia, Segoe UI Emoji" font-size="16px" fill="#000000" text-anchor="start" style="white-space: pre;" direction="ltr" dominant-baseline="text-before-edge">{"batch","v1","JobList"}</text></g><g stroke-linecap="round" transform="translate(568.6588179794085 187.7731156929193) rotate(0 52 19.5)"><path d="M0 0 L104 0 L104 39 L0 39" stroke="none" stroke-width="0" fill="#f2ffff"></path><path d="M0 0 C26.94 0, 53.87 0, 104 0 M0 0 C28.49 0, 56.99 0, 104 0 M104 0 C104 10.46, 104 20.92, 104 39 M104 0 C104 14.85, 104 29.71, 104 39 M104 39 C66.22 39, 28.43 39, 0 39 M104 39 C75.97 39, 47.95 39, 0 39 M0 39 C0 26.12, 0 13.23, 0 0 M0 39 C0 26.41, 0 13.83, 0 0" stroke="#000000" stroke-width="1" fill="none"></path></g><g transform="translate(573.7838179794085 197.67311569291928) rotate(0 46.875 9.6)"><text x="46.875" y="0" font-family="Cascadia, Segoe UI Emoji" font-size="16px" fill="#000000" text-anchor="middle" style="white-space: pre;" direction="ltr" dominant-baseline="text-before-edge">&amp;PodList{}</text></g><g stroke-linecap="round" transform="translate(330.26697377816254 187.69224606023135) rotate(0 119 19.5)"><path d="M0 0 L238 0 L238 39 L0 39" stroke="none" stroke-width="0" fill="#f2ffff"></path><path d="M0 0 C90.61 0, 181.22 0, 238 0 M0 0 C84.55 0, 169.11 0, 238 0 M238 0 C238 15.07, 238 30.15, 238 39 M238 0 C238 13.01, 238 26.02, 238 39 M238 39 C175.69 39, 113.37 39, 0 39 M238 39 C188.69 39, 139.37 39, 0 39 M0 39 C0 27.79, 0 16.57, 0 0 M0 39 C0 24.92, 0 10.84, 0 0" stroke="#000000" stroke-width="1" fill="none"></path></g><g transform="translate(335.26697377816254 197.59224606023136) rotate(0 89.0625 9.600000000000001)"><text x="0" y="0" font-family="Cascadia, Segoe UI Emoji" font-size="16px" fill="#000000" text-anchor="start" style="white-space: pre;" direction="ltr" dominant-baseline="text-before-edge">{"","v1","PodList"}</text></g><g transform="translate(135.06711340807942 81.07575739959104) rotate(0 8.203125 50.400000000000006)"><text x="8.203125" y="0" font-family="Cascadia, Segoe UI Emoji" font-size="28px" fill="#000000" text-anchor="middle" style="white-space: pre;" direction="ltr" dominant-baseline="text-before-edge">.</text><text x="8.203125" y="33.6" font-family="Cascadia, Segoe UI Emoji" font-size="28px" fill="#000000" text-anchor="middle" style="white-space: pre;" direction="ltr" dominant-baseline="text-before-edge">.</text><text x="8.203125" y="67.2" font-family="Cascadia, Segoe UI Emoji" font-size="28px" fill="#000000" text-anchor="middle" style="white-space: pre;" direction="ltr" dominant-baseline="text-before-edge">.</text></g><g transform="translate(484.8517813768294 81.07575739959104) rotate(0 8.203125 50.400000000000006)"><text x="8.203125" y="0" font-family="Cascadia, Segoe UI Emoji" font-size="28px" fill="#000000" text-anchor="middle" style="white-space: pre;" direction="ltr" dominant-baseline="text-before-edge">.</text><text x="8.203125" y="33.6" font-family="Cascadia, Segoe UI Emoji" font-size="28px" fill="#000000" text-anchor="middle" style="white-space: pre;" direction="ltr" dominant-baseline="text-before-edge">.</text><text x="8.203125" y="67.2" font-family="Cascadia, Segoe UI Emoji" font-size="28px" fill="#000000" text-anchor="middle" style="white-space: pre;" direction="ltr" dominant-baseline="text-before-edge">.</text></g><g transform="translate(979.774053105345 81.07575739959104) rotate(0 8.203125 50.400000000000006)"><text x="8.203125" y="0" font-family="Cascadia, Segoe UI Emoji" font-size="28px" fill="#000000" text-anchor="middle" style="white-space: pre;" direction="ltr" dominant-baseline="text-before-edge">.</text><text x="8.203125" y="33.6" font-family="Cascadia, Segoe UI Emoji" font-size="28px" fill="#000000" text-anchor="middle" style="white-space: pre;" direction="ltr" dominant-baseline="text-before-edge">.</text><text x="8.203125" y="67.2" font-family="Cascadia, Segoe UI Emoji" font-size="28px" fill="#000000" text-anchor="middle" style="white-space: pre;" direction="ltr" dominant-baseline="text-before-edge">.</text></g><g stroke-linecap="round" transform="translate(565.4172375094508 503.96624581473196) rotate(0 74 55.5)"><path d="M0 0 L148 0 L148 111 L0 111" stroke="none" stroke-width="0" fill="#f9f7ed"></path><path d="M0 0 C36.04 0, 72.09 0, 148 0 M0 0 C49.26 0, 98.51 0, 148 0 M148 0 C148 34.07, 148 68.15, 148 111 M148 0 C148 28.22, 148 56.44, 148 111 M148 111 C89.35 111, 30.7 111, 0 111 M148 111 C92.67 111, 37.34 111, 0 111 M0 111 C0 75.06, 0 39.13, 0 0 M0 111 C0 83.77, 0 56.54, 0 0" stroke="#000000" stroke-width="1" fill="none"></path></g><g transform="translate(611.2922375094508 508.96624581473196) rotate(0 28.125 9.599999999999994)"><text x="28.125" y="0" font-family="Cascadia, Segoe UI Emoji" font-size="16px" fill="#000000" text-anchor="middle" style="white-space: pre;" direction="ltr" dominant-baseline="text-before-edge">scheme</text></g><g stroke-linecap="round" transform="translate(590.4731243166136 541.4724312474079) rotate(0 22.419901820774612 8.670629882812506)"><path d="M0 0 C0 0, 0 0, 0 0 M0 0 C0 0, 0 0, 0 0 M-0.26 6.4 C1.17 4.75, 2.6 3.11, 4.99 0.36 M-0.26 6.4 C1.67 4.18, 3.6 1.96, 4.99 0.36 M0.13 12.04 C2.26 9.6, 4.38 7.16, 10.63 -0.03 M0.13 12.04 C2.43 9.4, 4.73 6.75, 10.63 -0.03 M0.53 17.68 C3.63 14.12, 6.72 10.56, 15.62 0.33 M0.53 17.68 C5.62 11.82, 10.72 5.96, 15.62 0.33 M5.51 18.04 C9.36 13.63, 13.2 9.21, 21.26 -0.07 M5.51 18.04 C8.82 14.25, 12.12 10.45, 21.26 -0.07 M11.16 17.65 C15.3 12.89, 19.44 8.12, 26.25 0.29 M11.16 17.65 C14.51 13.79, 17.87 9.93, 26.25 0.29 M16.14 18.01 C20.94 12.49, 25.73 6.98, 31.89 -0.1 M16.14 18.01 C21.01 12.41, 25.88 6.81, 31.89 -0.1 M21.79 17.61 C25.54 13.3, 29.3 8.98, 36.88 0.26 M21.79 17.61 C27.72 10.79, 33.66 3.96, 36.88 0.26 M26.77 17.98 C32.85 10.99, 38.92 4, 42.52 -0.14 M26.77 17.98 C30.41 13.79, 34.04 9.61, 42.52 -0.14 M32.42 17.58 C35.35 14.21, 38.28 10.83, 46.2 1.73 M32.42 17.58 C35.94 13.53, 39.46 9.48, 46.2 1.73 M37.41 17.94 C40.2 14.72, 43 11.51, 46.59 7.37 M37.41 17.94 C39.44 15.6, 41.48 13.25, 46.59 7.37 M43.05 17.55 C44.25 16.16, 45.45 14.78, 46.33 13.77 M43.05 17.55 C43.87 16.61, 44.68 15.67, 46.33 13.77" stroke="#f9f7ed" stroke-width="0.5" fill="none"></path><path d="M0 0 C9.36 0, 18.72 0, 44.84 0 M0 0 C17.13 0, 34.25 0, 44.84 0 M44.84 0 C44.84 5.54, 44.84 11.09, 44.84 17.34 M44.84 0 C44.84 4.53, 44.84 9.05, 44.84 17.34 M44.84 17.34 C33.76 17.34, 22.67 17.34, 0 17.34 M44.84 17.34 C27.7 17.34, 10.56 17.34, 0 17.34 M0 17.34 C0 13.47, 0 9.6, 0 0 M0 17.34 C0 10.81, 0 4.28, 0 0" stroke="#000000" stroke-width="1" fill="none"></path></g><g stroke-linecap="round" transform="translate(635.2416834306487 541.4724312474079) rotate(0 26.57173549128845 8.65325176532454)"><path d="M0 0 C0 0, 0 0, 0 0 M0 0 C0 0, 0 0, 0 0 M-0.26 6.4 C1.47 4.41, 3.19 2.42, 4.99 0.36 M-0.26 6.4 C1.12 4.81, 2.5 3.22, 4.99 0.36 M0.13 12.04 C4.31 7.24, 8.48 2.44, 10.63 -0.03 M0.13 12.04 C2.25 9.61, 4.36 7.18, 10.63 -0.03 M0.53 17.68 C3.77 13.95, 7.01 10.22, 15.62 0.33 M0.53 17.68 C6.36 10.98, 12.18 4.27, 15.62 0.33 M5.51 18.04 C10.27 12.57, 15.03 7.09, 21.26 -0.07 M5.51 18.04 C9.21 13.8, 12.9 9.55, 21.26 -0.07 M11.16 17.65 C16.35 11.68, 21.54 5.71, 26.25 0.29 M11.16 17.65 C17.14 10.77, 23.12 3.89, 26.25 0.29 M16.14 18.01 C19.99 13.58, 23.84 9.16, 31.89 -0.1 M16.14 18.01 C22.43 10.78, 28.71 3.55, 31.89 -0.1 M21.79 17.61 C27.58 10.96, 33.36 4.3, 36.88 0.26 M21.79 17.61 C26.18 12.57, 30.56 7.52, 36.88 0.26 M26.77 17.98 C31.09 13.01, 35.4 8.05, 42.52 -0.14 M26.77 17.98 C31.26 12.82, 35.74 7.66, 42.52 -0.14 M32.42 17.58 C35.68 13.83, 38.95 10.07, 47.51 0.22 M32.42 17.58 C35.46 14.08, 38.5 10.58, 47.51 0.22 M37.41 17.94 C43.02 11.48, 48.63 5.03, 53.15 -0.17 M37.41 17.94 C42.37 12.23, 47.34 6.51, 53.15 -0.17 M43.05 17.55 C47.52 12.4, 51.99 7.26, 56.17 2.45 M43.05 17.55 C48.23 11.58, 53.42 5.61, 56.17 2.45 M48.04 17.91 C50.97 14.52, 53.91 11.14, 55.91 8.85 M48.04 17.91 C50.79 14.74, 53.55 11.56, 55.91 8.85" stroke="#f9f7ed" stroke-width="0.5" fill="none"></path><path d="M0 0 C18.13 0, 36.26 0, 53.14 0 M0 0 C16.33 0, 32.66 0, 53.14 0 M53.14 0 C53.14 5.12, 53.14 10.24, 53.14 17.31 M53.14 0 C53.14 6.2, 53.14 12.4, 53.14 17.31 M53.14 17.31 C38.37 17.31, 23.6 17.31, 0 17.31 M53.14 17.31 C34.99 17.31, 16.84 17.31, 0 17.31 M0 17.31 C0 13.25, 0 9.18, 0 0 M0 17.31 C0 11.02, 0 4.73, 0 0" stroke="#000000" stroke-width="1" fill="none"></path></g><g transform="translate(599.3742952894274 541.4724312474079) rotate(0 13.4912109375 9.215587506975453)"><text x="0" y="0" font-family="Cascadia, Segoe UI Emoji" font-size="15.359312511625765px" fill="#5f3dc4" text-anchor="start" style="white-space: pre;" direction="ltr" dominant-baseline="text-before-edge">gvk</text></g><g transform="translate(643.5961694072785 541.4724312474079) rotate(0 17.98828125 9.215587506975453)"><text x="0" y="0" font-family="Cascadia, Segoe UI Emoji" font-size="15.359312511625765px" fill="#0a11d3" text-anchor="start" style="white-space: pre;" direction="ltr" dominant-baseline="text-before-edge">type</text></g><g stroke-linecap="round" transform="translate(590.4493206056761 558.5923999236788) rotate(0 22.419901820774612 7.621566381209931)"><path d="M0 0 C0 0, 0 0, 0 0 M0 0 C0 0, 0 0, 0 0 M-0.26 6.4 C1.17 4.75, 2.6 3.11, 4.99 0.36 M-0.26 6.4 C1.67 4.18, 3.6 1.96, 4.99 0.36 M0.13 12.04 C2.26 9.6, 4.38 7.16, 10.63 -0.03 M0.13 12.04 C2.43 9.4, 4.73 6.75, 10.63 -0.03 M1.18 16.93 C4.15 13.52, 7.11 10.11, 15.62 0.33 M1.18 16.93 C6.06 11.32, 10.93 5.72, 15.62 0.33 M6.83 16.53 C10.35 12.48, 13.87 8.44, 21.26 -0.07 M6.83 16.53 C9.85 13.05, 12.88 9.57, 21.26 -0.07 M11.81 16.89 C15.78 12.34, 19.74 7.78, 26.25 0.29 M11.81 16.89 C15.02 13.2, 18.24 9.51, 26.25 0.29 M17.46 16.5 C21.85 11.44, 26.25 6.39, 31.89 -0.1 M17.46 16.5 C21.92 11.36, 26.39 6.23, 31.89 -0.1 M22.44 16.86 C26.04 12.73, 29.63 8.6, 36.88 0.26 M22.44 16.86 C28.12 10.33, 33.8 3.8, 36.88 0.26 M28.09 16.47 C33.65 10.06, 39.22 3.66, 42.52 -0.14 M28.09 16.47 C31.42 12.63, 34.75 8.8, 42.52 -0.14 M33.07 16.83 C35.87 13.61, 38.66 10.4, 46.2 1.73 M33.07 16.83 C36.43 12.97, 39.78 9.11, 46.2 1.73 M38.72 16.43 C41.11 13.67, 43.51 10.91, 46.59 7.37 M38.72 16.43 C40.46 14.42, 42.21 12.41, 46.59 7.37" stroke="#f9f7ed" stroke-width="0.5" fill="none"></path><path d="M0 0 C9.36 0, 18.72 0, 44.84 0 M0 0 C17.13 0, 34.25 0, 44.84 0 M44.84 0 C44.84 4.87, 44.84 9.75, 44.84 15.24 M44.84 0 C44.84 3.98, 44.84 7.96, 44.84 15.24 M44.84 15.24 C33.76 15.24, 22.67 15.24, 0 15.24 M44.84 15.24 C27.7 15.24, 10.56 15.24, 0 15.24 M0 15.24 C0 11.84, 0 8.44, 0 0 M0 15.24 C0 9.5, 0 3.77, 0 0" stroke="#000000" stroke-width="1" fill="none"></path></g><g stroke-linecap="round" transform="translate(635.2178797197109 558.5923999236788) rotate(0 26.57173549128845 7.63191309219755)"><path d="M0 0 C0 0, 0 0, 0 0 M0 0 C0 0, 0 0, 0 0 M-0.26 6.4 C1.47 4.41, 3.19 2.42, 4.99 0.36 M-0.26 6.4 C1.12 4.81, 2.5 3.22, 4.99 0.36 M0.13 12.04 C4.31 7.24, 8.48 2.44, 10.63 -0.03 M0.13 12.04 C2.25 9.61, 4.36 7.18, 10.63 -0.03 M1.18 16.93 C4.29 13.36, 7.39 9.79, 15.62 0.33 M1.18 16.93 C6.76 10.52, 12.33 4.1, 15.62 0.33 M6.83 16.53 C11.19 11.52, 15.55 6.5, 21.26 -0.07 M6.83 16.53 C10.21 12.64, 13.6 8.75, 21.26 -0.07 M11.81 16.89 C16.78 11.18, 21.75 5.47, 26.25 0.29 M11.81 16.89 C17.53 10.31, 23.25 3.73, 26.25 0.29 M17.46 16.5 C20.98 12.44, 24.51 8.38, 31.89 -0.1 M17.46 16.5 C23.22 9.87, 28.98 3.25, 31.89 -0.1 M22.44 16.86 C27.98 10.49, 33.52 4.12, 36.88 0.26 M22.44 16.86 C26.64 12.03, 30.84 7.2, 36.88 0.26 M28.09 16.47 C32.04 11.92, 35.99 7.37, 42.52 -0.14 M28.09 16.47 C32.19 11.74, 36.3 7.01, 42.52 -0.14 M33.07 16.83 C36.2 13.23, 39.32 9.64, 47.51 0.22 M33.07 16.83 C35.99 13.48, 38.9 10.13, 47.51 0.22 M38.72 16.43 C43.86 10.51, 49.01 4.59, 53.15 -0.17 M38.72 16.43 C43.27 11.19, 47.82 5.96, 53.15 -0.17 M43.7 16.79 C47.95 11.9, 52.2 7.02, 56.17 2.45 M43.7 16.79 C48.63 11.12, 53.56 5.45, 56.17 2.45 M49.35 16.4 C51.8 13.58, 54.25 10.76, 55.91 8.85 M49.35 16.4 C51.64 13.75, 53.94 11.11, 55.91 8.85" stroke="#f9f7ed" stroke-width="0.5" fill="none"></path><path d="M0 0 C18.13 0, 36.26 0, 53.14 0 M0 0 C16.33 0, 32.66 0, 53.14 0 M53.14 0 C53.14 4.52, 53.14 9.03, 53.14 15.26 M53.14 0 C53.14 5.47, 53.14 10.94, 53.14 15.26 M53.14 15.26 C38.37 15.26, 23.6 15.26, 0 15.26 M53.14 15.26 C34.99 15.26, 16.84 15.26, 0 15.26 M0 15.26 C0 11.68, 0 8.1, 0 0 M0 15.26 C0 9.72, 0 4.17, 0 0" stroke="#000000" stroke-width="1" fill="none"></path></g><g stroke-linecap="round" transform="translate(590.4493206056761 574.3125044090921) rotate(0 22.419901820774612 6.8367227407601945)"><path d="M0 0 C0 0, 0 0, 0 0 M0 0 C0 0, 0 0, 0 0 M-0.26 6.4 C1.17 4.75, 2.6 3.11, 4.99 0.36 M-0.26 6.4 C1.67 4.18, 3.6 1.96, 4.99 0.36 M0.13 12.04 C2.26 9.6, 4.38 7.16, 10.63 -0.03 M0.13 12.04 C2.43 9.4, 4.73 6.75, 10.63 -0.03 M2.5 15.42 C5.19 12.32, 7.88 9.22, 15.62 0.33 M2.5 15.42 C6.93 10.32, 11.36 5.23, 15.62 0.33 M7.48 15.78 C10.84 11.91, 14.2 8.05, 21.26 -0.07 M7.48 15.78 C10.37 12.46, 13.26 9.13, 21.26 -0.07 M13.13 15.39 C16.73 11.24, 20.33 7.1, 26.25 0.29 M13.13 15.39 C16.04 12.03, 18.96 8.67, 26.25 0.29 M18.11 15.75 C22.31 10.92, 26.5 6.09, 31.89 -0.1 M18.11 15.75 C22.37 10.84, 26.64 5.94, 31.89 -0.1 M23.76 15.35 C27.02 11.59, 30.29 7.84, 36.88 0.26 M23.76 15.35 C28.92 9.41, 34.08 3.48, 36.88 0.26 M28.74 15.71 C34.06 9.6, 39.37 3.49, 42.52 -0.14 M28.74 15.71 C31.92 12.05, 35.1 8.39, 42.52 -0.14 M34.39 15.32 C36.9 12.42, 39.41 9.53, 46.2 1.73 M34.39 15.32 C37.4 11.85, 40.42 8.37, 46.2 1.73 M39.37 15.68 C41.57 13.15, 43.77 10.62, 46.59 7.37 M39.37 15.68 C40.97 13.83, 42.58 11.99, 46.59 7.37" stroke="#f9f7ed" stroke-width="0.5" fill="none"></path><path d="M0 0 C9.36 0, 18.72 0, 44.84 0 M0 0 C17.13 0, 34.25 0, 44.84 0 M44.84 0 C44.84 4.37, 44.84 8.74, 44.84 13.67 M44.84 0 C44.84 3.57, 44.84 7.14, 44.84 13.67 M44.84 13.67 C33.76 13.67, 22.67 13.67, 0 13.67 M44.84 13.67 C27.7 13.67, 10.56 13.67, 0 13.67 M0 13.67 C0 10.62, 0 7.57, 0 0 M0 13.67 C0 8.53, 0 3.38, 0 0" stroke="#000000" stroke-width="1" fill="none"></path></g><g stroke-linecap="round" transform="translate(635.2416834306484 574.3125044090921) rotate(0 26.57173549128845 6.816137460561862)"><path d="M0 0 C0 0, 0 0, 0 0 M0 0 C0 0, 0 0, 0 0 M-0.26 6.4 C1.47 4.41, 3.19 2.42, 4.99 0.36 M-0.26 6.4 C1.12 4.81, 2.5 3.22, 4.99 0.36 M0.13 12.04 C4.31 7.24, 8.48 2.44, 10.63 -0.03 M0.13 12.04 C2.25 9.61, 4.36 7.18, 10.63 -0.03 M2.5 15.42 C5.32 12.18, 8.14 8.93, 15.62 0.33 M2.5 15.42 C7.56 9.59, 12.63 3.76, 15.62 0.33 M7.48 15.78 C11.65 10.99, 15.81 6.2, 21.26 -0.07 M7.48 15.78 C10.71 12.06, 13.95 8.35, 21.26 -0.07 M13.13 15.39 C17.64 10.19, 22.15 5, 26.25 0.29 M13.13 15.39 C18.33 9.4, 23.53 3.42, 26.25 0.29 M18.11 15.75 C21.48 11.87, 24.85 8, 31.89 -0.1 M18.11 15.75 C23.61 9.42, 29.11 3.1, 31.89 -0.1 M23.76 15.35 C28.79 9.56, 33.82 3.77, 36.88 0.26 M23.76 15.35 C27.57 10.96, 31.39 6.57, 36.88 0.26 M28.74 15.71 C32.52 11.37, 36.29 7.03, 42.52 -0.14 M28.74 15.71 C32.66 11.2, 36.59 6.69, 42.52 -0.14 M34.39 15.32 C37.22 12.05, 40.06 8.79, 47.51 0.22 M34.39 15.32 C37.03 12.27, 39.68 9.23, 47.51 0.22 M39.37 15.68 C44.28 10.03, 49.2 4.38, 53.15 -0.17 M39.37 15.68 C43.72 10.68, 48.07 5.68, 53.15 -0.17 M45.02 15.28 C48.82 10.91, 52.62 6.54, 56.17 2.45 M45.02 15.28 C49.42 10.21, 53.83 5.14, 56.17 2.45 M50 15.64 C52.21 13.11, 54.41 10.57, 55.91 8.85 M50 15.64 C52.07 13.26, 54.14 10.89, 55.91 8.85" stroke="#f9f7ed" stroke-width="0.5" fill="none"></path><path d="M0 0 C18.13 0, 36.26 0, 53.14 0 M0 0 C16.33 0, 32.66 0, 53.14 0 M53.14 0 C53.14 4.03, 53.14 8.07, 53.14 13.63 M53.14 0 C53.14 4.88, 53.14 9.77, 53.14 13.63 M53.14 13.63 C38.37 13.63, 23.6 13.63, 0 13.63 M53.14 13.63 C34.99 13.63, 16.84 13.63, 0 13.63 M0 13.63 C0 10.43, 0 7.23, 0 0 M0 13.63 C0 8.68, 0 3.73, 0 0" stroke="#000000" stroke-width="1" fill="none"></path></g><g transform="translate(597.4943264239062 567.8032646254381) rotate(0 14.0625 9.599999999999994)"><text x="14.0625" y="0" font-family="Cascadia, Segoe UI Emoji" font-size="16px" fill="#000000" text-anchor="middle" style="white-space: pre;" direction="ltr" dominant-baseline="text-before-edge">...</text></g><g transform="translate(646.504500514952 567.6903383183468) rotate(0 14.0625 9.599999999999994)"><text x="14.0625" y="0" font-family="Cascadia, Segoe UI Emoji" font-size="16px" fill="#000000" text-anchor="middle" style="white-space: pre;" direction="ltr" dominant-baseline="text-before-edge">...</text></g><g stroke-linecap="round"><g transform="translate(167.8369024630199 288.80295620583024) rotate(0 209.29763853011605 144.98480724840476)"><path d="M0 0 C0 113.9, 0 227.79, 0 287.81 M0 287.81 C94.85 288.3, 189.71 288.79, 418.6 289.97" stroke="#000000" stroke-width="1.5" fill="none" stroke-dasharray="8 9"></path></g><g transform="translate(167.8369024630199 288.80295620583024) rotate(0 209.29763853011605 144.98480724840476)"><path d="M418.6 289.97 L404.97 296.24 L405.03 283.56 L418.6 289.97" stroke="none" stroke-width="0" fill="#000000" fill-rule="evenodd"></path><path d="M418.6 289.97 C413.2 292.45, 407.81 294.93, 404.97 296.24 M404.97 296.24 C404.98 293.37, 405 290.49, 405.03 283.56 M405.03 283.56 C408.58 285.23, 412.12 286.91, 418.6 289.97 M418.6 289.97 C418.6 289.97, 418.6 289.97, 418.6 289.97" stroke="#000000" stroke-width="1.5" fill="none"></path></g></g><mask></mask><g stroke-linecap="round"><g transform="translate(503.3129211952646 287.63557561279026) rotate(0 41.71460782069062 138.77604863894143)"><path d="M0 0 C0 73.87, 0 147.73, 0 276.49 M0 276.49 C20.16 276.74, 40.32 277, 83.43 277.55" stroke="#000000" stroke-width="1.5" fill="none" stroke-dasharray="8 9"></path></g><g transform="translate(503.3129211952646 287.63557561279026) rotate(0 41.71460782069062 138.77604863894143)"><path d="M83.43 277.55 L69.75 283.72 L69.92 271.04 L83.43 277.55" stroke="none" stroke-width="0" fill="#000000" fill-rule="evenodd"></path><path d="M83.43 277.55 C79.78 279.2, 76.12 280.85, 69.75 283.72 M69.75 283.72 C69.79 280.65, 69.83 277.59, 69.92 271.04 M69.92 271.04 C73.28 272.66, 76.64 274.28, 83.43 277.55 M83.43 277.55 C83.43 277.55, 83.43 277.55, 83.43 277.55" stroke="#000000" stroke-width="1.5" fill="none"></path></g></g><mask></mask><g stroke-linecap="round"><g transform="translate(992.8316589882329 289.43639015469284) rotate(0 -141.2939547633115 152.05775983839015)"><path d="M0 0 C0 113.82, 0 227.65, 0 303.22 M0 303.22 C-62.86 303.42, -125.72 303.62, -282.59 304.12" stroke="#000000" stroke-width="1.5" fill="none" stroke-dasharray="8 9"></path></g><g transform="translate(992.8316589882329 289.43639015469284) rotate(0 -141.2939547633115 152.05775983839015)"><path d="M-282.59 304.12 L-269.01 297.73 L-268.97 310.41 L-282.59 304.12" stroke="none" stroke-width="0" fill="#000000" fill-rule="evenodd"></path><path d="M-282.59 304.12 C-277.49 301.72, -272.4 299.32, -269.01 297.73 M-269.01 297.73 C-269 300.55, -269 303.37, -268.97 310.41 M-268.97 310.41 C-271.93 309.04, -274.89 307.67, -282.59 304.12 M-282.59 304.12 C-282.59 304.12, -282.59 304.12, -282.59 304.12" stroke="#000000" stroke-width="1.5" fill="none"></path></g></g><mask></mask><g stroke-linecap="round"><g transform="translate(635.6282068856226 615.966245814732) rotate(0 0.0028622684470747117 52.7158897913846)"><path d="M0 0 C0 25.3, 0 50.59, 0.01 105.43 M0 0 C0 41.16, 0 82.31, 0.01 105.43" stroke="#000000" stroke-width="1" fill="none"></path></g><g transform="translate(635.6282068856226 615.966245814732) rotate(0 0.0028622684470747117 52.7158897913846)"><path d="M0.01 105.43 L-6.33 91.84 L6.34 91.84 L0.01 105.43" stroke="none" stroke-width="0" fill="#000000" fill-rule="evenodd"></path><path d="M0.01 105.43 C-1.52 102.17, -3.04 98.91, -6.33 91.84 M0.01 105.43 C-2.47 100.13, -4.94 94.82, -6.33 91.84 M-6.33 91.84 C-2.81 91.84, 0.71 91.84, 6.34 91.84 M-6.33 91.84 C-2.1 91.84, 2.14 91.84, 6.34 91.84 M6.34 91.84 C3.84 97.22, 1.33 102.6, 0.01 105.43 M6.34 91.84 C4.99 94.73, 3.64 97.63, 0.01 105.43 M0.01 105.43 C0.01 105.43, 0.01 105.43, 0.01 105.43 M0.01 105.43 C0.01 105.43, 0.01 105.43, 0.01 105.43" stroke="#000000" stroke-width="1" fill="none"></path></g></g><mask></mask><g transform="translate(177.56255359716397 549.6203612129309) rotate(0 46.875 12)"><text x="0" y="0" font-family="Cascadia, Segoe UI Emoji" font-size="20px" fill="#000000" text-anchor="start" style="white-space: pre;" direction="ltr" dominant-baseline="text-before-edge">register</text></g><g transform="translate(889.4701921469687 561.5872038642981) rotate(0 46.875 12)"><text x="0" y="0" font-family="Cascadia, Segoe UI Emoji" font-size="20px" fill="#000000" text-anchor="start" style="white-space: pre;" direction="ltr" dominant-baseline="text-before-edge">register</text></g><g transform="translate(456.45058460302334 398.3036955635168) rotate(0 46.875 12)"><text x="0" y="0" font-family="Cascadia, Segoe UI Emoji" font-size="20px" fill="#000000" text-anchor="start" style="white-space: pre;" direction="ltr" dominant-baseline="text-before-edge">register</text></g><g stroke-linecap="round"><g transform="translate(353.2128577556914 749.4401854316809) rotate(0 93.7705637613933 0)"><path d="M0 0 C46.17 0, 92.33 0, 187.54 0 M0 0 C38.08 0, 76.16 0, 187.54 0" stroke="#000000" stroke-width="2" fill="none"></path></g><g transform="translate(353.2128577556914 749.4401854316809) rotate(0 93.7705637613933 0)"><path d="M187.54 0 L173.95 6.34 L173.95 -6.34 L187.54 0" stroke="none" stroke-width="0" fill="#000000" fill-rule="evenodd"></path><path d="M187.54 0 C184.19 1.56, 180.85 3.12, 173.95 6.34 M187.54 0 C184.78 1.29, 182.02 2.57, 173.95 6.34 M173.95 6.34 C173.95 1.5, 173.95 -3.33, 173.95 -6.34 M173.95 6.34 C173.95 3.59, 173.95 0.83, 173.95 -6.34 M173.95 -6.34 C178.64 -4.15, 183.34 -1.96, 187.54 0 M173.95 -6.34 C179.12 -3.93, 184.29 -1.52, 187.54 0 M187.54 0 C187.54 0, 187.54 0, 187.54 0 M187.54 0 C187.54 0, 187.54 0, 187.54 0" stroke="#000000" stroke-width="2" fill="none"></path></g></g><mask></mask><g stroke-linecap="round"><g transform="translate(736.008613777828 749.3223875801184) rotate(0 93.70244852701762 0)"><path d="M0 0 C46.64 0, 93.27 0, 187.4 0 M0 0 C71.62 0, 143.24 0, 187.4 0" stroke="#000000" stroke-width="2" fill="none"></path></g><g transform="translate(736.008613777828 749.3223875801184) rotate(0 93.70244852701762 0)"><path d="M187.4 0 L173.81 6.34 L173.81 -6.34 L187.4 0" stroke="none" stroke-width="0" fill="#000000" fill-rule="evenodd"></path><path d="M187.4 0 C184.02 1.58, 180.64 3.16, 173.81 6.34 M187.4 0 C182.21 2.42, 177.01 4.85, 173.81 6.34 M173.81 6.34 C173.81 3.28, 173.81 0.21, 173.81 -6.34 M173.81 6.34 C173.81 1.51, 173.81 -3.31, 173.81 -6.34 M173.81 -6.34 C176.81 -4.94, 179.81 -3.54, 187.4 0 M173.81 -6.34 C178.49 -4.16, 183.17 -1.98, 187.4 0 M187.4 0 C187.4 0, 187.4 0, 187.4 0 M187.4 0 C187.4 0, 187.4 0, 187.4 0" stroke="#000000" stroke-width="2" fill="none"></path></g></g><mask></mask><g stroke-linecap="round" transform="translate(386.252316984207 732.6475523750403) rotate(0 65.5 16)"><path d="M0 0 L131 0 L131 32 L0 32" stroke="none" stroke-width="0" fill="#ced4da"></path><path d="M0 0 C37.21 0, 74.42 0, 131 0 M0 0 C28.02 0, 56.05 0, 131 0 M131 0 C131 7.2, 131 14.39, 131 32 M131 0 C131 6.49, 131 12.98, 131 32 M131 32 C90.44 32, 49.88 32, 0 32 M131 32 C81.34 32, 31.67 32, 0 32 M0 32 C0 25.03, 0 18.05, 0 0 M0 32 C0 21.66, 0 11.33, 0 0" stroke="#000000" stroke-width="1" fill="none"></path></g><g transform="translate(395.502316984207 739.0475523750404) rotate(0 56.25 9.600000000000023)"><text x="56.25" y="0" font-family="Cascadia, Segoe UI Emoji" font-size="16px" fill="#000000" text-anchor="middle" style="white-space: pre;" direction="ltr" dominant-baseline="text-before-edge">pod([]bytes)</text></g><g stroke-linecap="round" transform="translate(749.4591854737905 732.5959471504309) rotate(0 65.5 16)"><path d="M0 0 L131 0 L131 32 L0 32" stroke="none" stroke-width="0" fill="#ced4da"></path><path d="M0 0 C37.21 0, 74.42 0, 131 0 M0 0 C28.02 0, 56.05 0, 131 0 M131 0 C131 7.2, 131 14.39, 131 32 M131 0 C131 6.49, 131 12.98, 131 32 M131 32 C90.44 32, 49.88 32, 0 32 M131 32 C81.34 32, 31.67 32, 0 32 M0 32 C0 25.03, 0 18.05, 0 0 M0 32 C0 21.66, 0 11.33, 0 0" stroke="#000000" stroke-width="1" fill="none"></path></g><g transform="translate(786.8341854737905 738.995947150431) rotate(0 28.125 9.600000000000023)"><text x="28.125" y="0" font-family="Cascadia, Segoe UI Emoji" font-size="16px" fill="#000000" text-anchor="middle" style="white-space: pre;" direction="ltr" dominant-baseline="text-before-edge">&amp;Pod{}</text></g><g stroke-opacity="0.6" fill-opacity="0.6" transform="translate(1082.5010334389935 289.7144408078897) rotate(0.025488320535913354 92.3125 12)"><text x="0" y="0" font-family="Cascadia, Segoe UI Emoji" font-size="20px" fill="#000000" text-anchor="start" style="white-space: pre;" direction="ltr" dominant-baseline="text-before-edge">©Xudong Wang🤖️🎈</text></g></svg>