<?xml version="1.0" encoding="UTF-8"?>
<svg xmlns="http://www.w3.org/2000/svg" xmlns:xlink="http://www.w3.org/1999/xlink" width="24px" height="16px" viewBox="0 0 24 16" version="1.1">
<g id="surface1">
<path style=" stroke:none;fill-rule:nonzero;fill:rgb(100%,0%,0%);fill-opacity:1;" d="M 19.253906 4.332031 C 19.078125 3.675781 18.566406 3.160156 17.914062 2.984375 C 16.734375 2.667969 12 2.667969 12 2.667969 C 12 2.667969 7.265625 2.667969 6.085938 2.984375 C 5.433594 3.160156 4.921875 3.675781 4.746094 4.332031 C 4.429688 5.519531 4.429688 8 4.429688 8 C 4.429688 8 4.429688 10.480469 4.746094 11.667969 C 4.921875 12.324219 5.433594 12.839844 6.085938 13.015625 C 7.265625 13.332031 12 13.332031 12 13.332031 C 12 13.332031 16.734375 13.332031 17.914062 13.015625 C 18.566406 12.839844 19.078125 12.324219 19.253906 11.667969 C 19.570312 10.480469 19.570312 8 19.570312 8 C 19.570312 8 19.570312 5.519531 19.253906 4.332031 "/>
<path style=" stroke:none;fill-rule:nonzero;fill:rgb(100%,100%,100%);fill-opacity:1;" d="M 10.453125 10.25 L 14.410156 8 L 10.453125 5.75 Z M 10.453125 10.25 "/>
</g>
</svg>
